%TF.GenerationSoftware,KiCad,Pcbnew,(5.1.6-0-10_14)*%
%TF.CreationDate,2020-10-13T20:32:31+01:00*%
%TF.ProjectId,Lil-Cheat,4c696c2d-4368-4656-9174-2e6b69636164,rev?*%
%TF.SameCoordinates,Original*%
%TF.FileFunction,Paste,Bot*%
%TF.FilePolarity,Positive*%
%FSLAX46Y46*%
G04 Gerber Fmt 4.6, Leading zero omitted, Abs format (unit mm)*
G04 Created by KiCad (PCBNEW (5.1.6-0-10_14)) date 2020-10-13 20:32:31*
%MOMM*%
%LPD*%
G01*
G04 APERTURE LIST*
%ADD10R,0.900000X1.200000*%
%ADD11R,1.800000X1.100000*%
%ADD12R,0.550000X1.500000*%
%ADD13R,1.500000X0.550000*%
%ADD14R,1.200000X1.400000*%
G04 APERTURE END LIST*
%TO.C,C1*%
G36*
G01*
X254264100Y-105218550D02*
X254264100Y-104306050D01*
G75*
G02*
X254507850Y-104062300I243750J0D01*
G01*
X254995350Y-104062300D01*
G75*
G02*
X255239100Y-104306050I0J-243750D01*
G01*
X255239100Y-105218550D01*
G75*
G02*
X254995350Y-105462300I-243750J0D01*
G01*
X254507850Y-105462300D01*
G75*
G02*
X254264100Y-105218550I0J243750D01*
G01*
G37*
G36*
G01*
X256139100Y-105218550D02*
X256139100Y-104306050D01*
G75*
G02*
X256382850Y-104062300I243750J0D01*
G01*
X256870350Y-104062300D01*
G75*
G02*
X257114100Y-104306050I0J-243750D01*
G01*
X257114100Y-105218550D01*
G75*
G02*
X256870350Y-105462300I-243750J0D01*
G01*
X256382850Y-105462300D01*
G75*
G02*
X256139100Y-105218550I0J243750D01*
G01*
G37*
%TD*%
%TO.C,C2*%
G36*
G01*
X256139100Y-112178150D02*
X256139100Y-111265650D01*
G75*
G02*
X256382850Y-111021900I243750J0D01*
G01*
X256870350Y-111021900D01*
G75*
G02*
X257114100Y-111265650I0J-243750D01*
G01*
X257114100Y-112178150D01*
G75*
G02*
X256870350Y-112421900I-243750J0D01*
G01*
X256382850Y-112421900D01*
G75*
G02*
X256139100Y-112178150I0J243750D01*
G01*
G37*
G36*
G01*
X254264100Y-112178150D02*
X254264100Y-111265650D01*
G75*
G02*
X254507850Y-111021900I243750J0D01*
G01*
X254995350Y-111021900D01*
G75*
G02*
X255239100Y-111265650I0J-243750D01*
G01*
X255239100Y-112178150D01*
G75*
G02*
X254995350Y-112421900I-243750J0D01*
G01*
X254507850Y-112421900D01*
G75*
G02*
X254264100Y-112178150I0J243750D01*
G01*
G37*
%TD*%
%TO.C,C3*%
G36*
G01*
X242431250Y-95700000D02*
X243343750Y-95700000D01*
G75*
G02*
X243587500Y-95943750I0J-243750D01*
G01*
X243587500Y-96431250D01*
G75*
G02*
X243343750Y-96675000I-243750J0D01*
G01*
X242431250Y-96675000D01*
G75*
G02*
X242187500Y-96431250I0J243750D01*
G01*
X242187500Y-95943750D01*
G75*
G02*
X242431250Y-95700000I243750J0D01*
G01*
G37*
G36*
G01*
X242431250Y-93825000D02*
X243343750Y-93825000D01*
G75*
G02*
X243587500Y-94068750I0J-243750D01*
G01*
X243587500Y-94556250D01*
G75*
G02*
X243343750Y-94800000I-243750J0D01*
G01*
X242431250Y-94800000D01*
G75*
G02*
X242187500Y-94556250I0J243750D01*
G01*
X242187500Y-94068750D01*
G75*
G02*
X242431250Y-93825000I243750J0D01*
G01*
G37*
%TD*%
%TO.C,C4*%
G36*
G01*
X249581250Y-94793750D02*
X249581250Y-95706250D01*
G75*
G02*
X249337500Y-95950000I-243750J0D01*
G01*
X248850000Y-95950000D01*
G75*
G02*
X248606250Y-95706250I0J243750D01*
G01*
X248606250Y-94793750D01*
G75*
G02*
X248850000Y-94550000I243750J0D01*
G01*
X249337500Y-94550000D01*
G75*
G02*
X249581250Y-94793750I0J-243750D01*
G01*
G37*
G36*
G01*
X251456250Y-94793750D02*
X251456250Y-95706250D01*
G75*
G02*
X251212500Y-95950000I-243750J0D01*
G01*
X250725000Y-95950000D01*
G75*
G02*
X250481250Y-95706250I0J243750D01*
G01*
X250481250Y-94793750D01*
G75*
G02*
X250725000Y-94550000I243750J0D01*
G01*
X251212500Y-94550000D01*
G75*
G02*
X251456250Y-94793750I0J-243750D01*
G01*
G37*
%TD*%
%TO.C,C5*%
G36*
G01*
X251456250Y-97175000D02*
X251456250Y-98087500D01*
G75*
G02*
X251212500Y-98331250I-243750J0D01*
G01*
X250725000Y-98331250D01*
G75*
G02*
X250481250Y-98087500I0J243750D01*
G01*
X250481250Y-97175000D01*
G75*
G02*
X250725000Y-96931250I243750J0D01*
G01*
X251212500Y-96931250D01*
G75*
G02*
X251456250Y-97175000I0J-243750D01*
G01*
G37*
G36*
G01*
X249581250Y-97175000D02*
X249581250Y-98087500D01*
G75*
G02*
X249337500Y-98331250I-243750J0D01*
G01*
X248850000Y-98331250D01*
G75*
G02*
X248606250Y-98087500I0J243750D01*
G01*
X248606250Y-97175000D01*
G75*
G02*
X248850000Y-96931250I243750J0D01*
G01*
X249337500Y-96931250D01*
G75*
G02*
X249581250Y-97175000I0J-243750D01*
G01*
G37*
%TD*%
%TO.C,C6*%
G36*
G01*
X251456250Y-92412500D02*
X251456250Y-93325000D01*
G75*
G02*
X251212500Y-93568750I-243750J0D01*
G01*
X250725000Y-93568750D01*
G75*
G02*
X250481250Y-93325000I0J243750D01*
G01*
X250481250Y-92412500D01*
G75*
G02*
X250725000Y-92168750I243750J0D01*
G01*
X251212500Y-92168750D01*
G75*
G02*
X251456250Y-92412500I0J-243750D01*
G01*
G37*
G36*
G01*
X249581250Y-92412500D02*
X249581250Y-93325000D01*
G75*
G02*
X249337500Y-93568750I-243750J0D01*
G01*
X248850000Y-93568750D01*
G75*
G02*
X248606250Y-93325000I0J243750D01*
G01*
X248606250Y-92412500D01*
G75*
G02*
X248850000Y-92168750I243750J0D01*
G01*
X249337500Y-92168750D01*
G75*
G02*
X249581250Y-92412500I0J-243750D01*
G01*
G37*
%TD*%
%TO.C,C7*%
G36*
G01*
X249581250Y-90031250D02*
X249581250Y-90943750D01*
G75*
G02*
X249337500Y-91187500I-243750J0D01*
G01*
X248850000Y-91187500D01*
G75*
G02*
X248606250Y-90943750I0J243750D01*
G01*
X248606250Y-90031250D01*
G75*
G02*
X248850000Y-89787500I243750J0D01*
G01*
X249337500Y-89787500D01*
G75*
G02*
X249581250Y-90031250I0J-243750D01*
G01*
G37*
G36*
G01*
X251456250Y-90031250D02*
X251456250Y-90943750D01*
G75*
G02*
X251212500Y-91187500I-243750J0D01*
G01*
X250725000Y-91187500D01*
G75*
G02*
X250481250Y-90943750I0J243750D01*
G01*
X250481250Y-90031250D01*
G75*
G02*
X250725000Y-89787500I243750J0D01*
G01*
X251212500Y-89787500D01*
G75*
G02*
X251456250Y-90031250I0J-243750D01*
G01*
G37*
%TD*%
D10*
%TO.C,D1*%
X9510000Y-79000000D03*
X12810000Y-79000000D03*
%TD*%
%TO.C,D2*%
X12810000Y-98000000D03*
X9510000Y-98000000D03*
%TD*%
%TO.C,D3*%
X12810000Y-117000000D03*
X9510000Y-117000000D03*
%TD*%
%TO.C,D4*%
X9510000Y-136000000D03*
X12810000Y-136000000D03*
%TD*%
%TO.C,D5*%
X28560000Y-79000000D03*
X31860000Y-79000000D03*
%TD*%
%TO.C,D6*%
X31860000Y-98000000D03*
X28560000Y-98000000D03*
%TD*%
%TO.C,D7*%
X31860000Y-117000000D03*
X28560000Y-117000000D03*
%TD*%
%TO.C,D8*%
X28560000Y-136000000D03*
X31860000Y-136000000D03*
%TD*%
%TO.C,D9*%
X47610000Y-79000000D03*
X50910000Y-79000000D03*
%TD*%
%TO.C,D10*%
X50910000Y-98000000D03*
X47610000Y-98000000D03*
%TD*%
%TO.C,D11*%
X50910000Y-117000000D03*
X47610000Y-117000000D03*
%TD*%
%TO.C,D12*%
X47610000Y-136000000D03*
X50910000Y-136000000D03*
%TD*%
%TO.C,D13*%
X69960000Y-79000000D03*
X66660000Y-79000000D03*
%TD*%
%TO.C,D14*%
X69960000Y-98000000D03*
X66660000Y-98000000D03*
%TD*%
%TO.C,D15*%
X69960000Y-117000000D03*
X66660000Y-117000000D03*
%TD*%
%TO.C,D16*%
X66660000Y-136000000D03*
X69960000Y-136000000D03*
%TD*%
%TO.C,D17*%
X89010000Y-79000000D03*
X85710000Y-79000000D03*
%TD*%
%TO.C,D18*%
X89010000Y-98000000D03*
X85710000Y-98000000D03*
%TD*%
%TO.C,D19*%
X89010000Y-117000000D03*
X85710000Y-117000000D03*
%TD*%
%TO.C,D20*%
X85710000Y-136000000D03*
X89010000Y-136000000D03*
%TD*%
%TO.C,D21*%
X108060000Y-79000000D03*
X104760000Y-79000000D03*
%TD*%
%TO.C,D22*%
X108060000Y-98000000D03*
X104760000Y-98000000D03*
%TD*%
%TO.C,D23*%
X108060000Y-117000000D03*
X104760000Y-117000000D03*
%TD*%
%TO.C,D24*%
X104760000Y-136000000D03*
X108060000Y-136000000D03*
%TD*%
%TO.C,D25*%
X127110000Y-79000000D03*
X123810000Y-79000000D03*
%TD*%
%TO.C,D26*%
X127110000Y-98000000D03*
X123810000Y-98000000D03*
%TD*%
%TO.C,D27*%
X127110000Y-117000000D03*
X123810000Y-117000000D03*
%TD*%
%TO.C,D28*%
X123810000Y-136000000D03*
X127110000Y-136000000D03*
%TD*%
%TO.C,D29*%
X142860000Y-79000000D03*
X146160000Y-79000000D03*
%TD*%
%TO.C,D30*%
X146160000Y-98000000D03*
X142860000Y-98000000D03*
%TD*%
%TO.C,D31*%
X142860000Y-117000000D03*
X146160000Y-117000000D03*
%TD*%
%TO.C,D32*%
X142860000Y-136000000D03*
X146160000Y-136000000D03*
%TD*%
%TO.C,D33*%
X165210000Y-79000000D03*
X161910000Y-79000000D03*
%TD*%
%TO.C,D34*%
X165210000Y-98000000D03*
X161910000Y-98000000D03*
%TD*%
%TO.C,D35*%
X165210000Y-117000000D03*
X161910000Y-117000000D03*
%TD*%
%TO.C,D36*%
X161910000Y-136000000D03*
X165210000Y-136000000D03*
%TD*%
%TO.C,D37*%
X180960000Y-79000000D03*
X184260000Y-79000000D03*
%TD*%
%TO.C,D38*%
X184260000Y-98000000D03*
X180960000Y-98000000D03*
%TD*%
%TO.C,D39*%
X180960000Y-117000000D03*
X184260000Y-117000000D03*
%TD*%
%TO.C,D40*%
X180960000Y-136000000D03*
X184260000Y-136000000D03*
%TD*%
%TO.C,D41*%
X203310000Y-79000000D03*
X200010000Y-79000000D03*
%TD*%
%TO.C,D42*%
X203310000Y-98000000D03*
X200010000Y-98000000D03*
%TD*%
%TO.C,D43*%
X200010000Y-117000000D03*
X203310000Y-117000000D03*
%TD*%
%TO.C,D44*%
X200010000Y-136000000D03*
X203310000Y-136000000D03*
%TD*%
%TO.C,D45*%
X222360000Y-79000000D03*
X219060000Y-79000000D03*
%TD*%
%TO.C,D46*%
X222360000Y-98000000D03*
X219060000Y-98000000D03*
%TD*%
%TO.C,D47*%
X219060000Y-117000000D03*
X222360000Y-117000000D03*
%TD*%
%TO.C,D48*%
X219060000Y-136000000D03*
X222360000Y-136000000D03*
%TD*%
%TO.C,D49*%
X250810000Y-79000000D03*
X254110000Y-79000000D03*
%TD*%
%TO.C,D50*%
X250810000Y-136000000D03*
X254110000Y-136000000D03*
%TD*%
%TO.C,D51*%
X269860000Y-79000000D03*
X273160000Y-79000000D03*
%TD*%
%TO.C,D52*%
X269860000Y-117000000D03*
X273160000Y-117000000D03*
%TD*%
%TO.C,D53*%
X269860000Y-136000000D03*
X273160000Y-136000000D03*
%TD*%
%TO.C,D54*%
X288910000Y-79000000D03*
X292210000Y-79000000D03*
%TD*%
%TO.C,D55*%
X288910000Y-136000000D03*
X292210000Y-136000000D03*
%TD*%
%TO.C,R1*%
G36*
G01*
X246283800Y-92693550D02*
X245371300Y-92693550D01*
G75*
G02*
X245127550Y-92449800I0J243750D01*
G01*
X245127550Y-91962300D01*
G75*
G02*
X245371300Y-91718550I243750J0D01*
G01*
X246283800Y-91718550D01*
G75*
G02*
X246527550Y-91962300I0J-243750D01*
G01*
X246527550Y-92449800D01*
G75*
G02*
X246283800Y-92693550I-243750J0D01*
G01*
G37*
G36*
G01*
X246283800Y-90818550D02*
X245371300Y-90818550D01*
G75*
G02*
X245127550Y-90574800I0J243750D01*
G01*
X245127550Y-90087300D01*
G75*
G02*
X245371300Y-89843550I243750J0D01*
G01*
X246283800Y-89843550D01*
G75*
G02*
X246527550Y-90087300I0J-243750D01*
G01*
X246527550Y-90574800D01*
G75*
G02*
X246283800Y-90818550I-243750J0D01*
G01*
G37*
%TD*%
%TO.C,R2*%
G36*
G01*
X244124800Y-90816250D02*
X243212300Y-90816250D01*
G75*
G02*
X242968550Y-90572500I0J243750D01*
G01*
X242968550Y-90085000D01*
G75*
G02*
X243212300Y-89841250I243750J0D01*
G01*
X244124800Y-89841250D01*
G75*
G02*
X244368550Y-90085000I0J-243750D01*
G01*
X244368550Y-90572500D01*
G75*
G02*
X244124800Y-90816250I-243750J0D01*
G01*
G37*
G36*
G01*
X244124800Y-92691250D02*
X243212300Y-92691250D01*
G75*
G02*
X242968550Y-92447500I0J243750D01*
G01*
X242968550Y-91960000D01*
G75*
G02*
X243212300Y-91716250I243750J0D01*
G01*
X244124800Y-91716250D01*
G75*
G02*
X244368550Y-91960000I0J-243750D01*
G01*
X244368550Y-92447500D01*
G75*
G02*
X244124800Y-92691250I-243750J0D01*
G01*
G37*
%TD*%
%TO.C,R3*%
G36*
G01*
X241034250Y-91699500D02*
X241946750Y-91699500D01*
G75*
G02*
X242190500Y-91943250I0J-243750D01*
G01*
X242190500Y-92430750D01*
G75*
G02*
X241946750Y-92674500I-243750J0D01*
G01*
X241034250Y-92674500D01*
G75*
G02*
X240790500Y-92430750I0J243750D01*
G01*
X240790500Y-91943250D01*
G75*
G02*
X241034250Y-91699500I243750J0D01*
G01*
G37*
G36*
G01*
X241034250Y-89824500D02*
X241946750Y-89824500D01*
G75*
G02*
X242190500Y-90068250I0J-243750D01*
G01*
X242190500Y-90555750D01*
G75*
G02*
X241946750Y-90799500I-243750J0D01*
G01*
X241034250Y-90799500D01*
G75*
G02*
X240790500Y-90555750I0J243750D01*
G01*
X240790500Y-90068250D01*
G75*
G02*
X241034250Y-89824500I243750J0D01*
G01*
G37*
%TD*%
%TO.C,R4*%
G36*
G01*
X236993750Y-114931250D02*
X236081250Y-114931250D01*
G75*
G02*
X235837500Y-114687500I0J243750D01*
G01*
X235837500Y-114200000D01*
G75*
G02*
X236081250Y-113956250I243750J0D01*
G01*
X236993750Y-113956250D01*
G75*
G02*
X237237500Y-114200000I0J-243750D01*
G01*
X237237500Y-114687500D01*
G75*
G02*
X236993750Y-114931250I-243750J0D01*
G01*
G37*
G36*
G01*
X236993750Y-113056250D02*
X236081250Y-113056250D01*
G75*
G02*
X235837500Y-112812500I0J243750D01*
G01*
X235837500Y-112325000D01*
G75*
G02*
X236081250Y-112081250I243750J0D01*
G01*
X236993750Y-112081250D01*
G75*
G02*
X237237500Y-112325000I0J-243750D01*
G01*
X237237500Y-112812500D01*
G75*
G02*
X236993750Y-113056250I-243750J0D01*
G01*
G37*
%TD*%
D11*
%TO.C,SW1*%
X238812000Y-78007600D03*
X232612000Y-81707600D03*
X238812000Y-81707600D03*
X232612000Y-78007600D03*
%TD*%
D12*
%TO.C,U1*%
X248817900Y-111605300D03*
X248017900Y-111605300D03*
X247217900Y-111605300D03*
X246417900Y-111605300D03*
X245617900Y-111605300D03*
X244817900Y-111605300D03*
X244017900Y-111605300D03*
X243217900Y-111605300D03*
X242417900Y-111605300D03*
X241617900Y-111605300D03*
X240817900Y-111605300D03*
D13*
X239117900Y-109905300D03*
X239117900Y-109105300D03*
X239117900Y-108305300D03*
X239117900Y-107505300D03*
X239117900Y-106705300D03*
X239117900Y-105905300D03*
X239117900Y-105105300D03*
X239117900Y-104305300D03*
X239117900Y-103505300D03*
X239117900Y-102705300D03*
X239117900Y-101905300D03*
D12*
X240817900Y-100205300D03*
X241617900Y-100205300D03*
X242417900Y-100205300D03*
X243217900Y-100205300D03*
X244017900Y-100205300D03*
X244817900Y-100205300D03*
X245617900Y-100205300D03*
X246417900Y-100205300D03*
X247217900Y-100205300D03*
X248017900Y-100205300D03*
X248817900Y-100205300D03*
D13*
X250517900Y-101905300D03*
X250517900Y-102705300D03*
X250517900Y-103505300D03*
X250517900Y-104305300D03*
X250517900Y-105105300D03*
X250517900Y-105905300D03*
X250517900Y-106705300D03*
X250517900Y-107505300D03*
X250517900Y-108305300D03*
X250517900Y-109105300D03*
X250517900Y-109905300D03*
%TD*%
D14*
%TO.C,Y1*%
X254839100Y-107167500D03*
X254839100Y-109367500D03*
X256539100Y-109367500D03*
X256539100Y-107167500D03*
%TD*%
%TO.C,J1*%
G36*
G01*
X241183500Y-88583500D02*
X241183500Y-87833500D01*
G75*
G02*
X241308500Y-87708500I125000J0D01*
G01*
X241558500Y-87708500D01*
G75*
G02*
X241683500Y-87833500I0J-125000D01*
G01*
X241683500Y-88583500D01*
G75*
G02*
X241558500Y-88708500I-125000J0D01*
G01*
X241308500Y-88708500D01*
G75*
G02*
X241183500Y-88583500I0J125000D01*
G01*
G37*
G36*
G01*
X241983500Y-88583500D02*
X241983500Y-87833500D01*
G75*
G02*
X242108500Y-87708500I125000J0D01*
G01*
X242358500Y-87708500D01*
G75*
G02*
X242483500Y-87833500I0J-125000D01*
G01*
X242483500Y-88583500D01*
G75*
G02*
X242358500Y-88708500I-125000J0D01*
G01*
X242108500Y-88708500D01*
G75*
G02*
X241983500Y-88583500I0J125000D01*
G01*
G37*
G36*
G01*
X242783500Y-88583500D02*
X242783500Y-87833500D01*
G75*
G02*
X242908500Y-87708500I125000J0D01*
G01*
X243158500Y-87708500D01*
G75*
G02*
X243283500Y-87833500I0J-125000D01*
G01*
X243283500Y-88583500D01*
G75*
G02*
X243158500Y-88708500I-125000J0D01*
G01*
X242908500Y-88708500D01*
G75*
G02*
X242783500Y-88583500I0J125000D01*
G01*
G37*
G36*
G01*
X243583500Y-88583500D02*
X243583500Y-87833500D01*
G75*
G02*
X243708500Y-87708500I125000J0D01*
G01*
X243958500Y-87708500D01*
G75*
G02*
X244083500Y-87833500I0J-125000D01*
G01*
X244083500Y-88583500D01*
G75*
G02*
X243958500Y-88708500I-125000J0D01*
G01*
X243708500Y-88708500D01*
G75*
G02*
X243583500Y-88583500I0J125000D01*
G01*
G37*
G36*
G01*
X239533500Y-86858501D02*
X239533500Y-85658499D01*
G75*
G02*
X239783499Y-85408500I249999J0D01*
G01*
X240483501Y-85408500D01*
G75*
G02*
X240733500Y-85658499I0J-249999D01*
G01*
X240733500Y-86858501D01*
G75*
G02*
X240483501Y-87108500I-249999J0D01*
G01*
X239783499Y-87108500D01*
G75*
G02*
X239533500Y-86858501I0J249999D01*
G01*
G37*
G36*
G01*
X244533500Y-86858501D02*
X244533500Y-85658499D01*
G75*
G02*
X244783499Y-85408500I249999J0D01*
G01*
X245483501Y-85408500D01*
G75*
G02*
X245733500Y-85658499I0J-249999D01*
G01*
X245733500Y-86858501D01*
G75*
G02*
X245483501Y-87108500I-249999J0D01*
G01*
X244783499Y-87108500D01*
G75*
G02*
X244533500Y-86858501I0J249999D01*
G01*
G37*
%TD*%
M02*
