M48
; DRILL file {KiCad (5.1.6-0-10_14)} date Tuesday, October 13, 2020 at 08:32:25 PM
; FORMAT={-:-/ absolute / inch / decimal}
; #@! TF.CreationDate,2020-10-13T20:32:25+01:00
; #@! TF.GenerationSoftware,Kicad,Pcbnew,(5.1.6-0-10_14)
; #@! TF.FileFunction,NonPlated,1,2,NPTH
FMAT,2
INCH
T1C0.0689
T2C0.1570
%
G90
G05
T1
X1.7Y-5.05
X2.1Y-5.05
X3.2Y-5.05
X3.6Y-5.05
X0.2Y-3.55
X0.6Y-3.55
X0.95Y-2.8
X1.35Y-2.8
X8.45Y-4.3
X8.85Y-4.3
X1.7Y-2.8
X2.1Y-2.8
X9.7Y-5.05
X10.1Y-5.05
X1.7Y-4.3
X2.1Y-4.3
X9.7Y-2.8
X10.1Y-2.8
X2.45Y-3.55
X2.85Y-3.55
X10.45Y-5.05
X10.85Y-5.05
X6.95Y-5.05
X7.35Y-5.05
X3.2Y-2.8
X3.6Y-2.8
X8.45Y-2.8
X8.85Y-2.8
X5.45Y-2.8
X5.85Y-2.8
X6.2Y-2.8
X6.6Y-2.8
X4.7Y-3.55
X5.1Y-3.55
X2.45Y-4.3
X2.85Y-4.3
X6.95Y-2.8
X7.35Y-2.8
X7.7Y-2.8
X8.1Y-2.8
X5.45Y-3.55
X5.85Y-3.55
X0.95Y-3.55
X1.35Y-3.55
X3.95Y-4.3
X4.35Y-4.3
X1.7Y-3.55
X2.1Y-3.55
X11.2Y-5.05
X11.6Y-5.05
X6.2Y-5.05
X6.6Y-5.05
X10.45Y-2.8
X10.85Y-2.8
X11.2Y-2.8
X11.6Y-2.8
X3.2Y-3.55
X3.6Y-3.55
X6.95Y-3.55
X7.35Y-3.55
X3.95Y-2.8
X4.35Y-2.8
X0.2Y-4.3
X0.6Y-4.3
X7.7Y-3.55
X8.1Y-3.55
X8.45Y-3.55
X8.85Y-3.55
X3.95Y-5.05
X4.35Y-5.05
X6.2Y-3.55
X6.6Y-3.55
X4.7Y-4.3
X5.1Y-4.3
X8.45Y-5.05
X8.85Y-5.05
X2.45Y-5.05
X2.85Y-5.05
X3.2Y-4.3
X3.6Y-4.3
X0.2Y-2.8
X0.6Y-2.8
X0.2Y-5.05
X0.6Y-5.05
X7.7Y-4.3
X8.1Y-4.3
X0.95Y-4.3
X1.35Y-4.3
X2.45Y-2.8
X2.85Y-2.8
X10.45Y-4.3
X10.85Y-4.3
X6.95Y-4.3
X7.35Y-4.3
X7.7Y-5.05
X8.1Y-5.05
X3.95Y-3.55
X4.35Y-3.55
X4.7Y-5.05
X5.1Y-5.05
X5.45Y-5.05
X5.85Y-5.05
X4.7Y-2.8
X5.1Y-2.8
X5.45Y-4.3
X5.85Y-4.3
X6.2Y-4.3
X6.6Y-4.3
X0.95Y-5.05
X1.35Y-5.05
T2
X2.65Y-5.05
X3.4Y-4.3
X0.4Y-2.8
X0.4Y-5.05
X7.9Y-4.3
X1.15Y-4.3
X2.65Y-2.8
X10.65Y-4.3
X7.15Y-4.3
X7.9Y-5.05
X4.15Y-3.55
X4.9Y-5.05
X5.65Y-5.05
X4.9Y-2.8
X5.65Y-4.3
X6.4Y-4.3
X1.15Y-5.05
X1.9Y-5.05
X3.4Y-5.05
X0.4Y-3.55
X1.15Y-2.8
X8.65Y-4.3
X1.9Y-2.8
X9.9Y-5.05
X1.9Y-4.3
X9.9Y-2.8
X2.65Y-3.55
X10.65Y-5.05
X7.15Y-5.05
X3.4Y-2.8
X8.65Y-2.8
X5.65Y-2.8
X6.4Y-2.8
X4.9Y-3.55
X2.65Y-4.3
X7.15Y-2.8
X7.9Y-2.8
X5.65Y-3.55
X1.15Y-3.55
X4.15Y-4.3
X1.9Y-3.55
X11.4Y-5.05
X6.4Y-5.05
X10.65Y-2.8
X11.4Y-2.8
X3.4Y-3.55
X7.15Y-3.55
X4.15Y-2.8
X0.4Y-4.3
X7.9Y-3.55
X8.65Y-3.55
X4.15Y-5.05
X6.4Y-3.55
X4.9Y-4.3
X8.65Y-5.05
T0
M30
