%TF.GenerationSoftware,KiCad,Pcbnew,(5.1.6-0-10_14)*%
%TF.CreationDate,2020-10-13T20:32:32+01:00*%
%TF.ProjectId,Lil-Cheat,4c696c2d-4368-4656-9174-2e6b69636164,rev?*%
%TF.SameCoordinates,Original*%
%TF.FileFunction,Soldermask,Top*%
%TF.FilePolarity,Negative*%
%FSLAX46Y46*%
G04 Gerber Fmt 4.6, Leading zero omitted, Abs format (unit mm)*
G04 Created by KiCad (PCBNEW (5.1.6-0-10_14)) date 2020-10-13 20:32:32*
%MOMM*%
%LPD*%
G01*
G04 APERTURE LIST*
%ADD10C,1.850000*%
%ADD11C,4.087800*%
G04 APERTURE END LIST*
D10*
%TO.C,MX55*%
X294640000Y-128270000D03*
X284480000Y-128270000D03*
D11*
X289560000Y-128270000D03*
%TD*%
D10*
%TO.C,MX40*%
X186690000Y-128270000D03*
X176530000Y-128270000D03*
D11*
X181610000Y-128270000D03*
%TD*%
%TO.C,MX1*%
X10160000Y-71120000D03*
D10*
X5080000Y-71120000D03*
X15240000Y-71120000D03*
%TD*%
D11*
%TO.C,MX2*%
X10160000Y-90170000D03*
D10*
X5080000Y-90170000D03*
X15240000Y-90170000D03*
%TD*%
D11*
%TO.C,MX3*%
X10160000Y-109220000D03*
D10*
X5080000Y-109220000D03*
X15240000Y-109220000D03*
%TD*%
%TO.C,MX4*%
X15240000Y-128270000D03*
X5080000Y-128270000D03*
D11*
X10160000Y-128270000D03*
%TD*%
D10*
%TO.C,MX5*%
X34290000Y-71120000D03*
X24130000Y-71120000D03*
D11*
X29210000Y-71120000D03*
%TD*%
%TO.C,MX6*%
X29210000Y-90170000D03*
D10*
X24130000Y-90170000D03*
X34290000Y-90170000D03*
%TD*%
D11*
%TO.C,MX7*%
X29210000Y-109220000D03*
D10*
X24130000Y-109220000D03*
X34290000Y-109220000D03*
%TD*%
%TO.C,MX8*%
X34290000Y-128270000D03*
X24130000Y-128270000D03*
D11*
X29210000Y-128270000D03*
%TD*%
D10*
%TO.C,MX9*%
X53340000Y-71120000D03*
X43180000Y-71120000D03*
D11*
X48260000Y-71120000D03*
%TD*%
%TO.C,MX10*%
X48260000Y-90170000D03*
D10*
X43180000Y-90170000D03*
X53340000Y-90170000D03*
%TD*%
D11*
%TO.C,MX11*%
X48260000Y-109220000D03*
D10*
X43180000Y-109220000D03*
X53340000Y-109220000D03*
%TD*%
%TO.C,MX12*%
X53340000Y-128270000D03*
X43180000Y-128270000D03*
D11*
X48260000Y-128270000D03*
%TD*%
D10*
%TO.C,MX13*%
X72390000Y-71120000D03*
X62230000Y-71120000D03*
D11*
X67310000Y-71120000D03*
%TD*%
%TO.C,MX14*%
X67310000Y-90170000D03*
D10*
X62230000Y-90170000D03*
X72390000Y-90170000D03*
%TD*%
D11*
%TO.C,MX15*%
X67310000Y-109220000D03*
D10*
X62230000Y-109220000D03*
X72390000Y-109220000D03*
%TD*%
%TO.C,MX16*%
X72390000Y-128270000D03*
X62230000Y-128270000D03*
D11*
X67310000Y-128270000D03*
%TD*%
D10*
%TO.C,MX17*%
X91440000Y-71120000D03*
X81280000Y-71120000D03*
D11*
X86360000Y-71120000D03*
%TD*%
%TO.C,MX18*%
X86360000Y-90170000D03*
D10*
X81280000Y-90170000D03*
X91440000Y-90170000D03*
%TD*%
D11*
%TO.C,MX19*%
X86360000Y-109220000D03*
D10*
X81280000Y-109220000D03*
X91440000Y-109220000D03*
%TD*%
%TO.C,MX20*%
X91440000Y-128270000D03*
X81280000Y-128270000D03*
D11*
X86360000Y-128270000D03*
%TD*%
%TO.C,MX21*%
X105410000Y-71120000D03*
D10*
X100330000Y-71120000D03*
X110490000Y-71120000D03*
%TD*%
D11*
%TO.C,MX22*%
X105410000Y-90170000D03*
D10*
X100330000Y-90170000D03*
X110490000Y-90170000D03*
%TD*%
D11*
%TO.C,MX23*%
X105410000Y-109220000D03*
D10*
X100330000Y-109220000D03*
X110490000Y-109220000D03*
%TD*%
%TO.C,MX24*%
X110490000Y-128270000D03*
X100330000Y-128270000D03*
D11*
X105410000Y-128270000D03*
%TD*%
%TO.C,MX25*%
X124460000Y-71120000D03*
D10*
X119380000Y-71120000D03*
X129540000Y-71120000D03*
%TD*%
D11*
%TO.C,MX26*%
X124460000Y-90170000D03*
D10*
X119380000Y-90170000D03*
X129540000Y-90170000D03*
%TD*%
D11*
%TO.C,MX27*%
X124460000Y-109220000D03*
D10*
X119380000Y-109220000D03*
X129540000Y-109220000D03*
%TD*%
%TO.C,MX28*%
X129540000Y-128270000D03*
X119380000Y-128270000D03*
D11*
X124460000Y-128270000D03*
%TD*%
%TO.C,MX29*%
X143510000Y-71120000D03*
D10*
X138430000Y-71120000D03*
X148590000Y-71120000D03*
%TD*%
D11*
%TO.C,MX30*%
X143510000Y-90170000D03*
D10*
X138430000Y-90170000D03*
X148590000Y-90170000D03*
%TD*%
D11*
%TO.C,MX31*%
X143510000Y-109220000D03*
D10*
X138430000Y-109220000D03*
X148590000Y-109220000D03*
%TD*%
%TO.C,MX32*%
X148590000Y-128270000D03*
X138430000Y-128270000D03*
D11*
X143510000Y-128270000D03*
%TD*%
%TO.C,MX33*%
X162560000Y-71120000D03*
D10*
X157480000Y-71120000D03*
X167640000Y-71120000D03*
%TD*%
D11*
%TO.C,MX34*%
X162560000Y-90170000D03*
D10*
X157480000Y-90170000D03*
X167640000Y-90170000D03*
%TD*%
%TO.C,MX35*%
X167640000Y-109220000D03*
X157480000Y-109220000D03*
D11*
X162560000Y-109220000D03*
%TD*%
D10*
%TO.C,MX36*%
X167640000Y-128270000D03*
X157480000Y-128270000D03*
D11*
X162560000Y-128270000D03*
%TD*%
%TO.C,MX37*%
X181610000Y-71120000D03*
D10*
X176530000Y-71120000D03*
X186690000Y-71120000D03*
%TD*%
D11*
%TO.C,MX38*%
X181610000Y-90170000D03*
D10*
X176530000Y-90170000D03*
X186690000Y-90170000D03*
%TD*%
%TO.C,MX39*%
X186690000Y-109220000D03*
X176530000Y-109220000D03*
D11*
X181610000Y-109220000D03*
%TD*%
%TO.C,MX41*%
X200660000Y-71120000D03*
D10*
X195580000Y-71120000D03*
X205740000Y-71120000D03*
%TD*%
D11*
%TO.C,MX42*%
X200660000Y-90170000D03*
D10*
X195580000Y-90170000D03*
X205740000Y-90170000D03*
%TD*%
%TO.C,MX43*%
X205740000Y-109220000D03*
X195580000Y-109220000D03*
D11*
X200660000Y-109220000D03*
%TD*%
D10*
%TO.C,MX44*%
X205740000Y-128270000D03*
X195580000Y-128270000D03*
D11*
X200660000Y-128270000D03*
%TD*%
%TO.C,MX45*%
X219710000Y-71120000D03*
D10*
X214630000Y-71120000D03*
X224790000Y-71120000D03*
%TD*%
D11*
%TO.C,MX46*%
X219710000Y-90170000D03*
D10*
X214630000Y-90170000D03*
X224790000Y-90170000D03*
%TD*%
%TO.C,MX47*%
X224790000Y-109220000D03*
X214630000Y-109220000D03*
D11*
X219710000Y-109220000D03*
%TD*%
D10*
%TO.C,MX48*%
X224790000Y-128270000D03*
X214630000Y-128270000D03*
D11*
X219710000Y-128270000D03*
%TD*%
D10*
%TO.C,MX49*%
X256540000Y-71120000D03*
X246380000Y-71120000D03*
D11*
X251460000Y-71120000D03*
%TD*%
D10*
%TO.C,MX50*%
X256540000Y-128270000D03*
X246380000Y-128270000D03*
D11*
X251460000Y-128270000D03*
%TD*%
D10*
%TO.C,MX51*%
X275590000Y-71120000D03*
X265430000Y-71120000D03*
D11*
X270510000Y-71120000D03*
%TD*%
D10*
%TO.C,MX52*%
X275590000Y-109220000D03*
X265430000Y-109220000D03*
D11*
X270510000Y-109220000D03*
%TD*%
D10*
%TO.C,MX53*%
X275590000Y-128270000D03*
X265430000Y-128270000D03*
D11*
X270510000Y-128270000D03*
%TD*%
D10*
%TO.C,MX54*%
X294640000Y-71120000D03*
X284480000Y-71120000D03*
D11*
X289560000Y-71120000D03*
%TD*%
M02*
