M48
; DRILL file {KiCad (5.1.6-0-10_14)} date Tuesday, October 13, 2020 at 08:32:25 PM
; FORMAT={-:-/ absolute / inch / decimal}
; #@! TF.CreationDate,2020-10-13T20:32:25+01:00
; #@! TF.GenerationSoftware,Kicad,Pcbnew,(5.1.6-0-10_14)
; #@! TF.FileFunction,Plated,1,2,PTH
FMAT,2
INCH
T1C0.0157
T2C0.0409
T3C0.0579
%
G90
G05
T1
X9.38Y-4.462
X9.479Y-3.692
X9.479Y-3.7377
X9.544Y-3.87
X9.5748Y-3.8426
X9.638Y-4.028
X9.6705Y-3.7635
X9.7008Y-3.6972
X9.75Y-4.058
T2
X1.85Y-3.75
X1.95Y-3.75
X11.35Y-5.25
X11.45Y-5.25
X6.35Y-5.25
X6.45Y-5.25
X10.6Y-3.0
X10.7Y-3.0
X11.35Y-3.0
X11.45Y-3.0
X3.35Y-3.75
X3.45Y-3.75
X7.1Y-3.75
X7.2Y-3.75
X4.1Y-3.0
X4.2Y-3.0
X0.35Y-4.5
X0.45Y-4.5
X7.85Y-3.75
X7.95Y-3.75
X8.6Y-3.75
X8.7Y-3.75
X4.1Y-5.25
X4.2Y-5.25
X6.35Y-3.75
X6.45Y-3.75
X4.85Y-4.5
X4.95Y-4.5
X8.6Y-5.25
X8.7Y-5.25
X2.6Y-5.25
X2.7Y-5.25
X3.35Y-4.5
X3.45Y-4.5
X0.35Y-3.0
X0.45Y-3.0
X0.35Y-5.25
X0.45Y-5.25
X7.85Y-4.5
X7.95Y-4.5
X1.1Y-4.5
X1.2Y-4.5
X2.6Y-3.0
X2.7Y-3.0
X10.6Y-4.5
X10.7Y-4.5
X7.1Y-4.5
X7.2Y-4.5
X7.85Y-5.25
X7.95Y-5.25
X4.1Y-3.75
X4.2Y-3.75
X4.85Y-5.25
X4.95Y-5.25
X5.6Y-5.25
X5.7Y-5.25
X4.85Y-3.0
X4.95Y-3.0
X5.6Y-4.5
X5.7Y-4.5
X6.35Y-4.5
X6.45Y-4.5
X1.1Y-5.25
X1.2Y-5.25
X1.85Y-5.25
X1.95Y-5.25
X3.35Y-5.25
X3.45Y-5.25
X0.35Y-3.75
X0.45Y-3.75
X1.1Y-3.0
X1.2Y-3.0
X8.6Y-4.5
X8.7Y-4.5
X1.85Y-3.0
X1.95Y-3.0
X9.85Y-5.25
X9.95Y-5.25
X1.85Y-4.5
X1.95Y-4.5
X9.85Y-3.0
X9.95Y-3.0
X2.6Y-3.75
X2.7Y-3.75
X10.6Y-5.25
X10.7Y-5.25
X7.1Y-5.25
X7.2Y-5.25
X3.35Y-3.0
X3.45Y-3.0
X8.6Y-3.0
X8.7Y-3.0
X5.6Y-3.0
X5.7Y-3.0
X6.35Y-3.0
X6.45Y-3.0
X4.85Y-3.75
X4.95Y-3.75
X2.6Y-4.5
X2.7Y-4.5
X7.1Y-3.0
X7.2Y-3.0
X7.85Y-3.0
X7.95Y-3.0
X5.6Y-3.75
X5.7Y-3.75
X1.1Y-3.75
X1.2Y-3.75
X4.1Y-4.5
X4.2Y-4.5
T3
X1.75Y-3.45
X1.8016Y-3.3925
X1.9984Y-3.3728
X2.0Y-3.35
X11.25Y-4.95
X11.3016Y-4.8925
X11.4984Y-4.8728
X11.5Y-4.85
X6.25Y-4.95
X6.3016Y-4.8925
X6.4984Y-4.8728
X6.5Y-4.85
X10.5Y-2.7
X10.5516Y-2.6425
X10.7484Y-2.6228
X10.75Y-2.6
X11.25Y-2.7
X11.3016Y-2.6425
X11.4984Y-2.6228
X11.5Y-2.6
X3.25Y-3.45
X3.3016Y-3.3925
X3.4984Y-3.3728
X3.5Y-3.35
X7.0Y-3.45
X7.0516Y-3.3925
X7.2484Y-3.3728
X7.25Y-3.35
X4.0Y-2.7
X4.0516Y-2.6425
X4.2484Y-2.6228
X4.25Y-2.6
X0.25Y-4.2
X0.3016Y-4.1425
X0.4984Y-4.1228
X0.5Y-4.1
X7.75Y-3.45
X7.8016Y-3.3925
X7.9984Y-3.3728
X8.0Y-3.35
X8.5Y-3.45
X8.5516Y-3.3925
X8.7484Y-3.3728
X8.75Y-3.35
X4.0Y-4.95
X4.0516Y-4.8925
X4.2484Y-4.8728
X4.25Y-4.85
X6.25Y-3.45
X6.3016Y-3.3925
X6.4984Y-3.3728
X6.5Y-3.35
X4.75Y-4.2
X4.8016Y-4.1425
X4.9984Y-4.1228
X5.0Y-4.1
X8.5Y-4.95
X8.5516Y-4.8925
X8.7484Y-4.8728
X8.75Y-4.85
X2.5Y-4.95
X2.5516Y-4.8925
X2.7484Y-4.8728
X2.75Y-4.85
X3.25Y-4.2
X3.3016Y-4.1425
X3.4984Y-4.1228
X3.5Y-4.1
X0.25Y-2.7
X0.3016Y-2.6425
X0.4984Y-2.6228
X0.5Y-2.6
X0.25Y-4.95
X0.3016Y-4.8925
X0.4984Y-4.8728
X0.5Y-4.85
X7.75Y-4.2
X7.8016Y-4.1425
X7.9984Y-4.1228
X8.0Y-4.1
X1.0Y-4.2
X1.0516Y-4.1425
X1.2484Y-4.1228
X1.25Y-4.1
X2.5Y-2.7
X2.5516Y-2.6425
X2.7484Y-2.6228
X2.75Y-2.6
X10.5Y-4.2
X10.5516Y-4.1425
X10.7484Y-4.1228
X10.75Y-4.1
X7.0Y-4.2
X7.0516Y-4.1425
X7.2484Y-4.1228
X7.25Y-4.1
X7.75Y-4.95
X7.8016Y-4.8925
X7.9984Y-4.8728
X8.0Y-4.85
X4.0Y-3.45
X4.0516Y-3.3925
X4.2484Y-3.3728
X4.25Y-3.35
X4.75Y-4.95
X4.8016Y-4.8925
X4.9984Y-4.8728
X5.0Y-4.85
X5.5Y-4.95
X5.5516Y-4.8925
X5.7484Y-4.8728
X5.75Y-4.85
X4.75Y-2.7
X4.8016Y-2.6425
X4.9984Y-2.6228
X5.0Y-2.6
X5.5Y-4.2
X5.5516Y-4.1425
X5.7484Y-4.1228
X5.75Y-4.1
X6.25Y-4.2
X6.3016Y-4.1425
X6.4984Y-4.1228
X6.5Y-4.1
X1.0Y-4.95
X1.0516Y-4.8925
X1.2484Y-4.8728
X1.25Y-4.85
X1.75Y-4.95
X1.8016Y-4.8925
X1.9984Y-4.8728
X2.0Y-4.85
X3.25Y-4.95
X3.3016Y-4.8925
X3.4984Y-4.8728
X3.5Y-4.85
X0.25Y-3.45
X0.3016Y-3.3925
X0.4984Y-3.3728
X0.5Y-3.35
X1.0Y-2.7
X1.0516Y-2.6425
X1.2484Y-2.6228
X1.25Y-2.6
X8.5Y-4.2
X8.5516Y-4.1425
X8.7484Y-4.1228
X8.75Y-4.1
X1.75Y-2.7
X1.8016Y-2.6425
X1.9984Y-2.6228
X2.0Y-2.6
X9.75Y-4.95
X9.8016Y-4.8925
X9.9984Y-4.8728
X10.0Y-4.85
X1.75Y-4.2
X1.8016Y-4.1425
X1.9984Y-4.1228
X2.0Y-4.1
X9.75Y-2.7
X9.8016Y-2.6425
X9.9984Y-2.6228
X10.0Y-2.6
X2.5Y-3.45
X2.5516Y-3.3925
X2.7484Y-3.3728
X2.75Y-3.35
X10.5Y-4.95
X10.5516Y-4.8925
X10.7484Y-4.8728
X10.75Y-4.85
X7.0Y-4.95
X7.0516Y-4.8925
X7.2484Y-4.8728
X7.25Y-4.85
X3.25Y-2.7
X3.3016Y-2.6425
X3.4984Y-2.6228
X3.5Y-2.6
X8.5Y-2.7
X8.5516Y-2.6425
X8.7484Y-2.6228
X8.75Y-2.6
X5.5Y-2.7
X5.5516Y-2.6425
X5.7484Y-2.6228
X5.75Y-2.6
X6.25Y-2.7
X6.3016Y-2.6425
X6.4984Y-2.6228
X6.5Y-2.6
X4.75Y-3.45
X4.8016Y-3.3925
X4.9984Y-3.3728
X5.0Y-3.35
X2.5Y-4.2
X2.5516Y-4.1425
X2.7484Y-4.1228
X2.75Y-4.1
X7.0Y-2.7
X7.0516Y-2.6425
X7.2484Y-2.6228
X7.25Y-2.6
X7.75Y-2.7
X7.8016Y-2.6425
X7.9984Y-2.6228
X8.0Y-2.6
X5.5Y-3.45
X5.5516Y-3.3925
X5.7484Y-3.3728
X5.75Y-3.35
X1.0Y-3.45
X1.0516Y-3.3925
X1.2484Y-3.3728
X1.25Y-3.35
X4.0Y-4.2
X4.0516Y-4.1425
X4.2484Y-4.1228
X4.25Y-4.1
T0
M30
