%TF.GenerationSoftware,KiCad,Pcbnew,(5.1.6-0-10_14)*%
%TF.CreationDate,2020-10-13T20:32:32+01:00*%
%TF.ProjectId,Lil-Cheat,4c696c2d-4368-4656-9174-2e6b69636164,rev?*%
%TF.SameCoordinates,Original*%
%TF.FileFunction,Legend,Bot*%
%TF.FilePolarity,Positive*%
%FSLAX46Y46*%
G04 Gerber Fmt 4.6, Leading zero omitted, Abs format (unit mm)*
G04 Created by KiCad (PCBNEW (5.1.6-0-10_14)) date 2020-10-13 20:32:32*
%MOMM*%
%LPD*%
G01*
G04 APERTURE LIST*
%ADD10C,0.120000*%
%ADD11C,0.150000*%
G04 APERTURE END LIST*
D10*
%TO.C,C1*%
X255430522Y-104052300D02*
X255947678Y-104052300D01*
X255430522Y-105472300D02*
X255947678Y-105472300D01*
%TO.C,C2*%
X255430522Y-112431900D02*
X255947678Y-112431900D01*
X255430522Y-111011900D02*
X255947678Y-111011900D01*
%TO.C,C3*%
X242177500Y-94991422D02*
X242177500Y-95508578D01*
X243597500Y-94991422D02*
X243597500Y-95508578D01*
%TO.C,C4*%
X250289828Y-94540000D02*
X249772672Y-94540000D01*
X250289828Y-95960000D02*
X249772672Y-95960000D01*
%TO.C,C5*%
X250289828Y-98341250D02*
X249772672Y-98341250D01*
X250289828Y-96921250D02*
X249772672Y-96921250D01*
%TO.C,C6*%
X250289828Y-93578750D02*
X249772672Y-93578750D01*
X250289828Y-92158750D02*
X249772672Y-92158750D01*
%TO.C,C7*%
X250289828Y-89777500D02*
X249772672Y-89777500D01*
X250289828Y-91197500D02*
X249772672Y-91197500D01*
%TO.C,D1*%
X8910000Y-80000000D02*
X12810000Y-80000000D01*
X8910000Y-78000000D02*
X12810000Y-78000000D01*
X8910000Y-80000000D02*
X8910000Y-78000000D01*
%TO.C,D2*%
X8910000Y-99000000D02*
X8910000Y-97000000D01*
X8910000Y-97000000D02*
X12810000Y-97000000D01*
X8910000Y-99000000D02*
X12810000Y-99000000D01*
%TO.C,D3*%
X8910000Y-118000000D02*
X8910000Y-116000000D01*
X8910000Y-116000000D02*
X12810000Y-116000000D01*
X8910000Y-118000000D02*
X12810000Y-118000000D01*
%TO.C,D4*%
X8910000Y-137000000D02*
X12810000Y-137000000D01*
X8910000Y-135000000D02*
X12810000Y-135000000D01*
X8910000Y-137000000D02*
X8910000Y-135000000D01*
%TO.C,D5*%
X27960000Y-80000000D02*
X31860000Y-80000000D01*
X27960000Y-78000000D02*
X31860000Y-78000000D01*
X27960000Y-80000000D02*
X27960000Y-78000000D01*
%TO.C,D6*%
X27960000Y-99000000D02*
X27960000Y-97000000D01*
X27960000Y-97000000D02*
X31860000Y-97000000D01*
X27960000Y-99000000D02*
X31860000Y-99000000D01*
%TO.C,D7*%
X27960000Y-118000000D02*
X27960000Y-116000000D01*
X27960000Y-116000000D02*
X31860000Y-116000000D01*
X27960000Y-118000000D02*
X31860000Y-118000000D01*
%TO.C,D8*%
X27960000Y-137000000D02*
X31860000Y-137000000D01*
X27960000Y-135000000D02*
X31860000Y-135000000D01*
X27960000Y-137000000D02*
X27960000Y-135000000D01*
%TO.C,D9*%
X47010000Y-80000000D02*
X50910000Y-80000000D01*
X47010000Y-78000000D02*
X50910000Y-78000000D01*
X47010000Y-80000000D02*
X47010000Y-78000000D01*
%TO.C,D10*%
X47010000Y-99000000D02*
X47010000Y-97000000D01*
X47010000Y-97000000D02*
X50910000Y-97000000D01*
X47010000Y-99000000D02*
X50910000Y-99000000D01*
%TO.C,D11*%
X47010000Y-118000000D02*
X47010000Y-116000000D01*
X47010000Y-116000000D02*
X50910000Y-116000000D01*
X47010000Y-118000000D02*
X50910000Y-118000000D01*
%TO.C,D12*%
X47010000Y-137000000D02*
X50910000Y-137000000D01*
X47010000Y-135000000D02*
X50910000Y-135000000D01*
X47010000Y-137000000D02*
X47010000Y-135000000D01*
%TO.C,D13*%
X66060000Y-80000000D02*
X66060000Y-78000000D01*
X66060000Y-78000000D02*
X69960000Y-78000000D01*
X66060000Y-80000000D02*
X69960000Y-80000000D01*
%TO.C,D14*%
X66060000Y-99000000D02*
X66060000Y-97000000D01*
X66060000Y-97000000D02*
X69960000Y-97000000D01*
X66060000Y-99000000D02*
X69960000Y-99000000D01*
%TO.C,D15*%
X66060000Y-118000000D02*
X66060000Y-116000000D01*
X66060000Y-116000000D02*
X69960000Y-116000000D01*
X66060000Y-118000000D02*
X69960000Y-118000000D01*
%TO.C,D16*%
X66060000Y-137000000D02*
X69960000Y-137000000D01*
X66060000Y-135000000D02*
X69960000Y-135000000D01*
X66060000Y-137000000D02*
X66060000Y-135000000D01*
%TO.C,D17*%
X85110000Y-80000000D02*
X85110000Y-78000000D01*
X85110000Y-78000000D02*
X89010000Y-78000000D01*
X85110000Y-80000000D02*
X89010000Y-80000000D01*
%TO.C,D18*%
X85110000Y-99000000D02*
X85110000Y-97000000D01*
X85110000Y-97000000D02*
X89010000Y-97000000D01*
X85110000Y-99000000D02*
X89010000Y-99000000D01*
%TO.C,D19*%
X85110000Y-118000000D02*
X85110000Y-116000000D01*
X85110000Y-116000000D02*
X89010000Y-116000000D01*
X85110000Y-118000000D02*
X89010000Y-118000000D01*
%TO.C,D20*%
X85110000Y-137000000D02*
X89010000Y-137000000D01*
X85110000Y-135000000D02*
X89010000Y-135000000D01*
X85110000Y-137000000D02*
X85110000Y-135000000D01*
%TO.C,D21*%
X104160000Y-80000000D02*
X104160000Y-78000000D01*
X104160000Y-78000000D02*
X108060000Y-78000000D01*
X104160000Y-80000000D02*
X108060000Y-80000000D01*
%TO.C,D22*%
X104160000Y-99000000D02*
X104160000Y-97000000D01*
X104160000Y-97000000D02*
X108060000Y-97000000D01*
X104160000Y-99000000D02*
X108060000Y-99000000D01*
%TO.C,D23*%
X104160000Y-118000000D02*
X104160000Y-116000000D01*
X104160000Y-116000000D02*
X108060000Y-116000000D01*
X104160000Y-118000000D02*
X108060000Y-118000000D01*
%TO.C,D24*%
X104160000Y-137000000D02*
X108060000Y-137000000D01*
X104160000Y-135000000D02*
X108060000Y-135000000D01*
X104160000Y-137000000D02*
X104160000Y-135000000D01*
%TO.C,D25*%
X123210000Y-80000000D02*
X123210000Y-78000000D01*
X123210000Y-78000000D02*
X127110000Y-78000000D01*
X123210000Y-80000000D02*
X127110000Y-80000000D01*
%TO.C,D26*%
X123210000Y-99000000D02*
X123210000Y-97000000D01*
X123210000Y-97000000D02*
X127110000Y-97000000D01*
X123210000Y-99000000D02*
X127110000Y-99000000D01*
%TO.C,D27*%
X123210000Y-118000000D02*
X123210000Y-116000000D01*
X123210000Y-116000000D02*
X127110000Y-116000000D01*
X123210000Y-118000000D02*
X127110000Y-118000000D01*
%TO.C,D28*%
X123210000Y-137000000D02*
X127110000Y-137000000D01*
X123210000Y-135000000D02*
X127110000Y-135000000D01*
X123210000Y-137000000D02*
X123210000Y-135000000D01*
%TO.C,D29*%
X142260000Y-80000000D02*
X146160000Y-80000000D01*
X142260000Y-78000000D02*
X146160000Y-78000000D01*
X142260000Y-80000000D02*
X142260000Y-78000000D01*
%TO.C,D30*%
X142260000Y-99000000D02*
X142260000Y-97000000D01*
X142260000Y-97000000D02*
X146160000Y-97000000D01*
X142260000Y-99000000D02*
X146160000Y-99000000D01*
%TO.C,D31*%
X142260000Y-118000000D02*
X146160000Y-118000000D01*
X142260000Y-116000000D02*
X146160000Y-116000000D01*
X142260000Y-118000000D02*
X142260000Y-116000000D01*
%TO.C,D32*%
X142260000Y-137000000D02*
X146160000Y-137000000D01*
X142260000Y-135000000D02*
X146160000Y-135000000D01*
X142260000Y-137000000D02*
X142260000Y-135000000D01*
%TO.C,D33*%
X161310000Y-80000000D02*
X161310000Y-78000000D01*
X161310000Y-78000000D02*
X165210000Y-78000000D01*
X161310000Y-80000000D02*
X165210000Y-80000000D01*
%TO.C,D34*%
X161310000Y-99000000D02*
X161310000Y-97000000D01*
X161310000Y-97000000D02*
X165210000Y-97000000D01*
X161310000Y-99000000D02*
X165210000Y-99000000D01*
%TO.C,D35*%
X161310000Y-118000000D02*
X161310000Y-116000000D01*
X161310000Y-116000000D02*
X165210000Y-116000000D01*
X161310000Y-118000000D02*
X165210000Y-118000000D01*
%TO.C,D36*%
X161310000Y-137000000D02*
X165210000Y-137000000D01*
X161310000Y-135000000D02*
X165210000Y-135000000D01*
X161310000Y-137000000D02*
X161310000Y-135000000D01*
%TO.C,D37*%
X180360000Y-80000000D02*
X184260000Y-80000000D01*
X180360000Y-78000000D02*
X184260000Y-78000000D01*
X180360000Y-80000000D02*
X180360000Y-78000000D01*
%TO.C,D38*%
X180360000Y-99000000D02*
X180360000Y-97000000D01*
X180360000Y-97000000D02*
X184260000Y-97000000D01*
X180360000Y-99000000D02*
X184260000Y-99000000D01*
%TO.C,D39*%
X180360000Y-118000000D02*
X184260000Y-118000000D01*
X180360000Y-116000000D02*
X184260000Y-116000000D01*
X180360000Y-118000000D02*
X180360000Y-116000000D01*
%TO.C,D40*%
X180360000Y-137000000D02*
X184260000Y-137000000D01*
X180360000Y-135000000D02*
X184260000Y-135000000D01*
X180360000Y-137000000D02*
X180360000Y-135000000D01*
%TO.C,D41*%
X199410000Y-80000000D02*
X199410000Y-78000000D01*
X199410000Y-78000000D02*
X203310000Y-78000000D01*
X199410000Y-80000000D02*
X203310000Y-80000000D01*
%TO.C,D42*%
X199410000Y-99000000D02*
X199410000Y-97000000D01*
X199410000Y-97000000D02*
X203310000Y-97000000D01*
X199410000Y-99000000D02*
X203310000Y-99000000D01*
%TO.C,D43*%
X199410000Y-118000000D02*
X203310000Y-118000000D01*
X199410000Y-116000000D02*
X203310000Y-116000000D01*
X199410000Y-118000000D02*
X199410000Y-116000000D01*
%TO.C,D44*%
X199410000Y-137000000D02*
X203310000Y-137000000D01*
X199410000Y-135000000D02*
X203310000Y-135000000D01*
X199410000Y-137000000D02*
X199410000Y-135000000D01*
%TO.C,D45*%
X218460000Y-80000000D02*
X218460000Y-78000000D01*
X218460000Y-78000000D02*
X222360000Y-78000000D01*
X218460000Y-80000000D02*
X222360000Y-80000000D01*
%TO.C,D46*%
X218460000Y-99000000D02*
X218460000Y-97000000D01*
X218460000Y-97000000D02*
X222360000Y-97000000D01*
X218460000Y-99000000D02*
X222360000Y-99000000D01*
%TO.C,D47*%
X218460000Y-118000000D02*
X222360000Y-118000000D01*
X218460000Y-116000000D02*
X222360000Y-116000000D01*
X218460000Y-118000000D02*
X218460000Y-116000000D01*
%TO.C,D48*%
X218460000Y-137000000D02*
X222360000Y-137000000D01*
X218460000Y-135000000D02*
X222360000Y-135000000D01*
X218460000Y-137000000D02*
X218460000Y-135000000D01*
%TO.C,D49*%
X250210000Y-80000000D02*
X254110000Y-80000000D01*
X250210000Y-78000000D02*
X254110000Y-78000000D01*
X250210000Y-80000000D02*
X250210000Y-78000000D01*
%TO.C,D50*%
X250210000Y-137000000D02*
X254110000Y-137000000D01*
X250210000Y-135000000D02*
X254110000Y-135000000D01*
X250210000Y-137000000D02*
X250210000Y-135000000D01*
%TO.C,D51*%
X269260000Y-80000000D02*
X273160000Y-80000000D01*
X269260000Y-78000000D02*
X273160000Y-78000000D01*
X269260000Y-80000000D02*
X269260000Y-78000000D01*
%TO.C,D52*%
X269260000Y-118000000D02*
X273160000Y-118000000D01*
X269260000Y-116000000D02*
X273160000Y-116000000D01*
X269260000Y-118000000D02*
X269260000Y-116000000D01*
%TO.C,D53*%
X269260000Y-137000000D02*
X273160000Y-137000000D01*
X269260000Y-135000000D02*
X273160000Y-135000000D01*
X269260000Y-137000000D02*
X269260000Y-135000000D01*
%TO.C,D54*%
X288310000Y-80000000D02*
X292210000Y-80000000D01*
X288310000Y-78000000D02*
X292210000Y-78000000D01*
X288310000Y-80000000D02*
X288310000Y-78000000D01*
%TO.C,D55*%
X288310000Y-137000000D02*
X292210000Y-137000000D01*
X288310000Y-135000000D02*
X292210000Y-135000000D01*
X288310000Y-137000000D02*
X288310000Y-135000000D01*
%TO.C,R1*%
X245117550Y-91527128D02*
X245117550Y-91009972D01*
X246537550Y-91527128D02*
X246537550Y-91009972D01*
%TO.C,R2*%
X244378550Y-91524828D02*
X244378550Y-91007672D01*
X242958550Y-91524828D02*
X242958550Y-91007672D01*
%TO.C,R3*%
X240780500Y-90990922D02*
X240780500Y-91508078D01*
X242200500Y-90990922D02*
X242200500Y-91508078D01*
%TO.C,R4*%
X235827500Y-113764828D02*
X235827500Y-113247672D01*
X237247500Y-113764828D02*
X237247500Y-113247672D01*
D11*
%TO.C,SW1*%
X233112000Y-82457600D02*
X238312000Y-82457600D01*
X238312000Y-82457600D02*
X238312000Y-77257600D01*
X238312000Y-77257600D02*
X233112000Y-77257600D01*
X233112000Y-77257600D02*
X233112000Y-82457600D01*
X236712000Y-79857600D02*
G75*
G03*
X236712000Y-79857600I-1000000J0D01*
G01*
%TO.C,U1*%
X249417900Y-111080300D02*
X249417900Y-112355300D01*
X249992900Y-100730300D02*
X249992900Y-101405300D01*
X239642900Y-100730300D02*
X239642900Y-101405300D01*
X239642900Y-111080300D02*
X239642900Y-110405300D01*
X249992900Y-111080300D02*
X249992900Y-110405300D01*
X239642900Y-111080300D02*
X240317900Y-111080300D01*
X239642900Y-100730300D02*
X240317900Y-100730300D01*
X249992900Y-100730300D02*
X249317900Y-100730300D01*
X249992900Y-111080300D02*
X249417900Y-111080300D01*
D10*
%TO.C,Y1*%
X257339100Y-106267500D02*
X257339100Y-110267500D01*
X254039100Y-106267500D02*
X257339100Y-106267500D01*
%TO.C,J1*%
X239823500Y-87368500D02*
X239823500Y-88268500D01*
X239823500Y-88268500D02*
X240673500Y-88268500D01*
X240673500Y-88268500D02*
X240673500Y-88568500D01*
X240673500Y-88568500D02*
X240923500Y-88568500D01*
X240923500Y-88568500D02*
X240923500Y-88708500D01*
X245443500Y-87368500D02*
X245443500Y-88268500D01*
X245443500Y-88268500D02*
X244593500Y-88268500D01*
X244593500Y-88268500D02*
X244593500Y-88568500D01*
X244593500Y-88568500D02*
X244343500Y-88568500D01*
X240993500Y-85648500D02*
X244273500Y-85648500D01*
X241183500Y-89562053D02*
X241433500Y-89208500D01*
X241433500Y-89208500D02*
X241683500Y-89562053D01*
X241683500Y-89562053D02*
X241183500Y-89562053D01*
%TO.C,C1*%
D11*
X255855766Y-106769442D02*
X255903385Y-106817061D01*
X256046242Y-106864680D01*
X256141480Y-106864680D01*
X256284338Y-106817061D01*
X256379576Y-106721823D01*
X256427195Y-106626585D01*
X256474814Y-106436109D01*
X256474814Y-106293252D01*
X256427195Y-106102776D01*
X256379576Y-106007538D01*
X256284338Y-105912300D01*
X256141480Y-105864680D01*
X256046242Y-105864680D01*
X255903385Y-105912300D01*
X255855766Y-105959919D01*
X254903385Y-106864680D02*
X255474814Y-106864680D01*
X255189100Y-106864680D02*
X255189100Y-105864680D01*
X255284338Y-106007538D01*
X255379576Y-106102776D01*
X255474814Y-106150395D01*
%TO.C,C2*%
X255855766Y-113729042D02*
X255903385Y-113776661D01*
X256046242Y-113824280D01*
X256141480Y-113824280D01*
X256284338Y-113776661D01*
X256379576Y-113681423D01*
X256427195Y-113586185D01*
X256474814Y-113395709D01*
X256474814Y-113252852D01*
X256427195Y-113062376D01*
X256379576Y-112967138D01*
X256284338Y-112871900D01*
X256141480Y-112824280D01*
X256046242Y-112824280D01*
X255903385Y-112871900D01*
X255855766Y-112919519D01*
X255474814Y-112919519D02*
X255427195Y-112871900D01*
X255331957Y-112824280D01*
X255093861Y-112824280D01*
X254998623Y-112871900D01*
X254951004Y-112919519D01*
X254903385Y-113014757D01*
X254903385Y-113109995D01*
X254951004Y-113252852D01*
X255522433Y-113824280D01*
X254903385Y-113824280D01*
%TO.C,C3*%
X241594642Y-95083333D02*
X241642261Y-95035714D01*
X241689880Y-94892857D01*
X241689880Y-94797619D01*
X241642261Y-94654761D01*
X241547023Y-94559523D01*
X241451785Y-94511904D01*
X241261309Y-94464285D01*
X241118452Y-94464285D01*
X240927976Y-94511904D01*
X240832738Y-94559523D01*
X240737500Y-94654761D01*
X240689880Y-94797619D01*
X240689880Y-94892857D01*
X240737500Y-95035714D01*
X240785119Y-95083333D01*
X240689880Y-95416666D02*
X240689880Y-96035714D01*
X241070833Y-95702380D01*
X241070833Y-95845238D01*
X241118452Y-95940476D01*
X241166071Y-95988095D01*
X241261309Y-96035714D01*
X241499404Y-96035714D01*
X241594642Y-95988095D01*
X241642261Y-95940476D01*
X241689880Y-95845238D01*
X241689880Y-95559523D01*
X241642261Y-95464285D01*
X241594642Y-95416666D01*
%TO.C,C4*%
X250197916Y-93957142D02*
X250245535Y-94004761D01*
X250388392Y-94052380D01*
X250483630Y-94052380D01*
X250626488Y-94004761D01*
X250721726Y-93909523D01*
X250769345Y-93814285D01*
X250816964Y-93623809D01*
X250816964Y-93480952D01*
X250769345Y-93290476D01*
X250721726Y-93195238D01*
X250626488Y-93100000D01*
X250483630Y-93052380D01*
X250388392Y-93052380D01*
X250245535Y-93100000D01*
X250197916Y-93147619D01*
X249340773Y-93385714D02*
X249340773Y-94052380D01*
X249578869Y-93004761D02*
X249816964Y-93719047D01*
X249197916Y-93719047D01*
%TO.C,C5*%
X250197916Y-96338392D02*
X250245535Y-96386011D01*
X250388392Y-96433630D01*
X250483630Y-96433630D01*
X250626488Y-96386011D01*
X250721726Y-96290773D01*
X250769345Y-96195535D01*
X250816964Y-96005059D01*
X250816964Y-95862202D01*
X250769345Y-95671726D01*
X250721726Y-95576488D01*
X250626488Y-95481250D01*
X250483630Y-95433630D01*
X250388392Y-95433630D01*
X250245535Y-95481250D01*
X250197916Y-95528869D01*
X249293154Y-95433630D02*
X249769345Y-95433630D01*
X249816964Y-95909821D01*
X249769345Y-95862202D01*
X249674107Y-95814583D01*
X249436011Y-95814583D01*
X249340773Y-95862202D01*
X249293154Y-95909821D01*
X249245535Y-96005059D01*
X249245535Y-96243154D01*
X249293154Y-96338392D01*
X249340773Y-96386011D01*
X249436011Y-96433630D01*
X249674107Y-96433630D01*
X249769345Y-96386011D01*
X249816964Y-96338392D01*
%TO.C,C6*%
X250197916Y-91575892D02*
X250245535Y-91623511D01*
X250388392Y-91671130D01*
X250483630Y-91671130D01*
X250626488Y-91623511D01*
X250721726Y-91528273D01*
X250769345Y-91433035D01*
X250816964Y-91242559D01*
X250816964Y-91099702D01*
X250769345Y-90909226D01*
X250721726Y-90813988D01*
X250626488Y-90718750D01*
X250483630Y-90671130D01*
X250388392Y-90671130D01*
X250245535Y-90718750D01*
X250197916Y-90766369D01*
X249340773Y-90671130D02*
X249531250Y-90671130D01*
X249626488Y-90718750D01*
X249674107Y-90766369D01*
X249769345Y-90909226D01*
X249816964Y-91099702D01*
X249816964Y-91480654D01*
X249769345Y-91575892D01*
X249721726Y-91623511D01*
X249626488Y-91671130D01*
X249436011Y-91671130D01*
X249340773Y-91623511D01*
X249293154Y-91575892D01*
X249245535Y-91480654D01*
X249245535Y-91242559D01*
X249293154Y-91147321D01*
X249340773Y-91099702D01*
X249436011Y-91052083D01*
X249626488Y-91052083D01*
X249721726Y-91099702D01*
X249769345Y-91147321D01*
X249816964Y-91242559D01*
%TO.C,C7*%
X250197916Y-89194642D02*
X250245535Y-89242261D01*
X250388392Y-89289880D01*
X250483630Y-89289880D01*
X250626488Y-89242261D01*
X250721726Y-89147023D01*
X250769345Y-89051785D01*
X250816964Y-88861309D01*
X250816964Y-88718452D01*
X250769345Y-88527976D01*
X250721726Y-88432738D01*
X250626488Y-88337500D01*
X250483630Y-88289880D01*
X250388392Y-88289880D01*
X250245535Y-88337500D01*
X250197916Y-88385119D01*
X249864583Y-88289880D02*
X249197916Y-88289880D01*
X249626488Y-89289880D01*
%TO.C,D1*%
X11898095Y-81452380D02*
X11898095Y-80452380D01*
X11660000Y-80452380D01*
X11517142Y-80500000D01*
X11421904Y-80595238D01*
X11374285Y-80690476D01*
X11326666Y-80880952D01*
X11326666Y-81023809D01*
X11374285Y-81214285D01*
X11421904Y-81309523D01*
X11517142Y-81404761D01*
X11660000Y-81452380D01*
X11898095Y-81452380D01*
X10374285Y-81452380D02*
X10945714Y-81452380D01*
X10660000Y-81452380D02*
X10660000Y-80452380D01*
X10755238Y-80595238D01*
X10850476Y-80690476D01*
X10945714Y-80738095D01*
%TO.C,D2*%
X11898095Y-100452380D02*
X11898095Y-99452380D01*
X11660000Y-99452380D01*
X11517142Y-99500000D01*
X11421904Y-99595238D01*
X11374285Y-99690476D01*
X11326666Y-99880952D01*
X11326666Y-100023809D01*
X11374285Y-100214285D01*
X11421904Y-100309523D01*
X11517142Y-100404761D01*
X11660000Y-100452380D01*
X11898095Y-100452380D01*
X10945714Y-99547619D02*
X10898095Y-99500000D01*
X10802857Y-99452380D01*
X10564761Y-99452380D01*
X10469523Y-99500000D01*
X10421904Y-99547619D01*
X10374285Y-99642857D01*
X10374285Y-99738095D01*
X10421904Y-99880952D01*
X10993333Y-100452380D01*
X10374285Y-100452380D01*
%TO.C,D3*%
X11898095Y-119452380D02*
X11898095Y-118452380D01*
X11660000Y-118452380D01*
X11517142Y-118500000D01*
X11421904Y-118595238D01*
X11374285Y-118690476D01*
X11326666Y-118880952D01*
X11326666Y-119023809D01*
X11374285Y-119214285D01*
X11421904Y-119309523D01*
X11517142Y-119404761D01*
X11660000Y-119452380D01*
X11898095Y-119452380D01*
X10993333Y-118452380D02*
X10374285Y-118452380D01*
X10707619Y-118833333D01*
X10564761Y-118833333D01*
X10469523Y-118880952D01*
X10421904Y-118928571D01*
X10374285Y-119023809D01*
X10374285Y-119261904D01*
X10421904Y-119357142D01*
X10469523Y-119404761D01*
X10564761Y-119452380D01*
X10850476Y-119452380D01*
X10945714Y-119404761D01*
X10993333Y-119357142D01*
%TO.C,D4*%
X11898095Y-138452380D02*
X11898095Y-137452380D01*
X11660000Y-137452380D01*
X11517142Y-137500000D01*
X11421904Y-137595238D01*
X11374285Y-137690476D01*
X11326666Y-137880952D01*
X11326666Y-138023809D01*
X11374285Y-138214285D01*
X11421904Y-138309523D01*
X11517142Y-138404761D01*
X11660000Y-138452380D01*
X11898095Y-138452380D01*
X10469523Y-137785714D02*
X10469523Y-138452380D01*
X10707619Y-137404761D02*
X10945714Y-138119047D01*
X10326666Y-138119047D01*
%TO.C,D5*%
X30948095Y-81452380D02*
X30948095Y-80452380D01*
X30710000Y-80452380D01*
X30567142Y-80500000D01*
X30471904Y-80595238D01*
X30424285Y-80690476D01*
X30376666Y-80880952D01*
X30376666Y-81023809D01*
X30424285Y-81214285D01*
X30471904Y-81309523D01*
X30567142Y-81404761D01*
X30710000Y-81452380D01*
X30948095Y-81452380D01*
X29471904Y-80452380D02*
X29948095Y-80452380D01*
X29995714Y-80928571D01*
X29948095Y-80880952D01*
X29852857Y-80833333D01*
X29614761Y-80833333D01*
X29519523Y-80880952D01*
X29471904Y-80928571D01*
X29424285Y-81023809D01*
X29424285Y-81261904D01*
X29471904Y-81357142D01*
X29519523Y-81404761D01*
X29614761Y-81452380D01*
X29852857Y-81452380D01*
X29948095Y-81404761D01*
X29995714Y-81357142D01*
%TO.C,D6*%
X30948095Y-100452380D02*
X30948095Y-99452380D01*
X30710000Y-99452380D01*
X30567142Y-99500000D01*
X30471904Y-99595238D01*
X30424285Y-99690476D01*
X30376666Y-99880952D01*
X30376666Y-100023809D01*
X30424285Y-100214285D01*
X30471904Y-100309523D01*
X30567142Y-100404761D01*
X30710000Y-100452380D01*
X30948095Y-100452380D01*
X29519523Y-99452380D02*
X29710000Y-99452380D01*
X29805238Y-99500000D01*
X29852857Y-99547619D01*
X29948095Y-99690476D01*
X29995714Y-99880952D01*
X29995714Y-100261904D01*
X29948095Y-100357142D01*
X29900476Y-100404761D01*
X29805238Y-100452380D01*
X29614761Y-100452380D01*
X29519523Y-100404761D01*
X29471904Y-100357142D01*
X29424285Y-100261904D01*
X29424285Y-100023809D01*
X29471904Y-99928571D01*
X29519523Y-99880952D01*
X29614761Y-99833333D01*
X29805238Y-99833333D01*
X29900476Y-99880952D01*
X29948095Y-99928571D01*
X29995714Y-100023809D01*
%TO.C,D7*%
X30948095Y-119452380D02*
X30948095Y-118452380D01*
X30710000Y-118452380D01*
X30567142Y-118500000D01*
X30471904Y-118595238D01*
X30424285Y-118690476D01*
X30376666Y-118880952D01*
X30376666Y-119023809D01*
X30424285Y-119214285D01*
X30471904Y-119309523D01*
X30567142Y-119404761D01*
X30710000Y-119452380D01*
X30948095Y-119452380D01*
X30043333Y-118452380D02*
X29376666Y-118452380D01*
X29805238Y-119452380D01*
%TO.C,D8*%
X30948095Y-138452380D02*
X30948095Y-137452380D01*
X30710000Y-137452380D01*
X30567142Y-137500000D01*
X30471904Y-137595238D01*
X30424285Y-137690476D01*
X30376666Y-137880952D01*
X30376666Y-138023809D01*
X30424285Y-138214285D01*
X30471904Y-138309523D01*
X30567142Y-138404761D01*
X30710000Y-138452380D01*
X30948095Y-138452380D01*
X29805238Y-137880952D02*
X29900476Y-137833333D01*
X29948095Y-137785714D01*
X29995714Y-137690476D01*
X29995714Y-137642857D01*
X29948095Y-137547619D01*
X29900476Y-137500000D01*
X29805238Y-137452380D01*
X29614761Y-137452380D01*
X29519523Y-137500000D01*
X29471904Y-137547619D01*
X29424285Y-137642857D01*
X29424285Y-137690476D01*
X29471904Y-137785714D01*
X29519523Y-137833333D01*
X29614761Y-137880952D01*
X29805238Y-137880952D01*
X29900476Y-137928571D01*
X29948095Y-137976190D01*
X29995714Y-138071428D01*
X29995714Y-138261904D01*
X29948095Y-138357142D01*
X29900476Y-138404761D01*
X29805238Y-138452380D01*
X29614761Y-138452380D01*
X29519523Y-138404761D01*
X29471904Y-138357142D01*
X29424285Y-138261904D01*
X29424285Y-138071428D01*
X29471904Y-137976190D01*
X29519523Y-137928571D01*
X29614761Y-137880952D01*
%TO.C,D9*%
X49998095Y-81452380D02*
X49998095Y-80452380D01*
X49760000Y-80452380D01*
X49617142Y-80500000D01*
X49521904Y-80595238D01*
X49474285Y-80690476D01*
X49426666Y-80880952D01*
X49426666Y-81023809D01*
X49474285Y-81214285D01*
X49521904Y-81309523D01*
X49617142Y-81404761D01*
X49760000Y-81452380D01*
X49998095Y-81452380D01*
X48950476Y-81452380D02*
X48760000Y-81452380D01*
X48664761Y-81404761D01*
X48617142Y-81357142D01*
X48521904Y-81214285D01*
X48474285Y-81023809D01*
X48474285Y-80642857D01*
X48521904Y-80547619D01*
X48569523Y-80500000D01*
X48664761Y-80452380D01*
X48855238Y-80452380D01*
X48950476Y-80500000D01*
X48998095Y-80547619D01*
X49045714Y-80642857D01*
X49045714Y-80880952D01*
X48998095Y-80976190D01*
X48950476Y-81023809D01*
X48855238Y-81071428D01*
X48664761Y-81071428D01*
X48569523Y-81023809D01*
X48521904Y-80976190D01*
X48474285Y-80880952D01*
%TO.C,D10*%
X50474285Y-100452380D02*
X50474285Y-99452380D01*
X50236190Y-99452380D01*
X50093333Y-99500000D01*
X49998095Y-99595238D01*
X49950476Y-99690476D01*
X49902857Y-99880952D01*
X49902857Y-100023809D01*
X49950476Y-100214285D01*
X49998095Y-100309523D01*
X50093333Y-100404761D01*
X50236190Y-100452380D01*
X50474285Y-100452380D01*
X48950476Y-100452380D02*
X49521904Y-100452380D01*
X49236190Y-100452380D02*
X49236190Y-99452380D01*
X49331428Y-99595238D01*
X49426666Y-99690476D01*
X49521904Y-99738095D01*
X48331428Y-99452380D02*
X48236190Y-99452380D01*
X48140952Y-99500000D01*
X48093333Y-99547619D01*
X48045714Y-99642857D01*
X47998095Y-99833333D01*
X47998095Y-100071428D01*
X48045714Y-100261904D01*
X48093333Y-100357142D01*
X48140952Y-100404761D01*
X48236190Y-100452380D01*
X48331428Y-100452380D01*
X48426666Y-100404761D01*
X48474285Y-100357142D01*
X48521904Y-100261904D01*
X48569523Y-100071428D01*
X48569523Y-99833333D01*
X48521904Y-99642857D01*
X48474285Y-99547619D01*
X48426666Y-99500000D01*
X48331428Y-99452380D01*
%TO.C,D11*%
X50474285Y-119452380D02*
X50474285Y-118452380D01*
X50236190Y-118452380D01*
X50093333Y-118500000D01*
X49998095Y-118595238D01*
X49950476Y-118690476D01*
X49902857Y-118880952D01*
X49902857Y-119023809D01*
X49950476Y-119214285D01*
X49998095Y-119309523D01*
X50093333Y-119404761D01*
X50236190Y-119452380D01*
X50474285Y-119452380D01*
X48950476Y-119452380D02*
X49521904Y-119452380D01*
X49236190Y-119452380D02*
X49236190Y-118452380D01*
X49331428Y-118595238D01*
X49426666Y-118690476D01*
X49521904Y-118738095D01*
X47998095Y-119452380D02*
X48569523Y-119452380D01*
X48283809Y-119452380D02*
X48283809Y-118452380D01*
X48379047Y-118595238D01*
X48474285Y-118690476D01*
X48569523Y-118738095D01*
%TO.C,D12*%
X50474285Y-138452380D02*
X50474285Y-137452380D01*
X50236190Y-137452380D01*
X50093333Y-137500000D01*
X49998095Y-137595238D01*
X49950476Y-137690476D01*
X49902857Y-137880952D01*
X49902857Y-138023809D01*
X49950476Y-138214285D01*
X49998095Y-138309523D01*
X50093333Y-138404761D01*
X50236190Y-138452380D01*
X50474285Y-138452380D01*
X48950476Y-138452380D02*
X49521904Y-138452380D01*
X49236190Y-138452380D02*
X49236190Y-137452380D01*
X49331428Y-137595238D01*
X49426666Y-137690476D01*
X49521904Y-137738095D01*
X48569523Y-137547619D02*
X48521904Y-137500000D01*
X48426666Y-137452380D01*
X48188571Y-137452380D01*
X48093333Y-137500000D01*
X48045714Y-137547619D01*
X47998095Y-137642857D01*
X47998095Y-137738095D01*
X48045714Y-137880952D01*
X48617142Y-138452380D01*
X47998095Y-138452380D01*
%TO.C,D13*%
X69524285Y-81452380D02*
X69524285Y-80452380D01*
X69286190Y-80452380D01*
X69143333Y-80500000D01*
X69048095Y-80595238D01*
X69000476Y-80690476D01*
X68952857Y-80880952D01*
X68952857Y-81023809D01*
X69000476Y-81214285D01*
X69048095Y-81309523D01*
X69143333Y-81404761D01*
X69286190Y-81452380D01*
X69524285Y-81452380D01*
X68000476Y-81452380D02*
X68571904Y-81452380D01*
X68286190Y-81452380D02*
X68286190Y-80452380D01*
X68381428Y-80595238D01*
X68476666Y-80690476D01*
X68571904Y-80738095D01*
X67667142Y-80452380D02*
X67048095Y-80452380D01*
X67381428Y-80833333D01*
X67238571Y-80833333D01*
X67143333Y-80880952D01*
X67095714Y-80928571D01*
X67048095Y-81023809D01*
X67048095Y-81261904D01*
X67095714Y-81357142D01*
X67143333Y-81404761D01*
X67238571Y-81452380D01*
X67524285Y-81452380D01*
X67619523Y-81404761D01*
X67667142Y-81357142D01*
%TO.C,D14*%
X69524285Y-100452380D02*
X69524285Y-99452380D01*
X69286190Y-99452380D01*
X69143333Y-99500000D01*
X69048095Y-99595238D01*
X69000476Y-99690476D01*
X68952857Y-99880952D01*
X68952857Y-100023809D01*
X69000476Y-100214285D01*
X69048095Y-100309523D01*
X69143333Y-100404761D01*
X69286190Y-100452380D01*
X69524285Y-100452380D01*
X68000476Y-100452380D02*
X68571904Y-100452380D01*
X68286190Y-100452380D02*
X68286190Y-99452380D01*
X68381428Y-99595238D01*
X68476666Y-99690476D01*
X68571904Y-99738095D01*
X67143333Y-99785714D02*
X67143333Y-100452380D01*
X67381428Y-99404761D02*
X67619523Y-100119047D01*
X67000476Y-100119047D01*
%TO.C,D15*%
X69524285Y-119452380D02*
X69524285Y-118452380D01*
X69286190Y-118452380D01*
X69143333Y-118500000D01*
X69048095Y-118595238D01*
X69000476Y-118690476D01*
X68952857Y-118880952D01*
X68952857Y-119023809D01*
X69000476Y-119214285D01*
X69048095Y-119309523D01*
X69143333Y-119404761D01*
X69286190Y-119452380D01*
X69524285Y-119452380D01*
X68000476Y-119452380D02*
X68571904Y-119452380D01*
X68286190Y-119452380D02*
X68286190Y-118452380D01*
X68381428Y-118595238D01*
X68476666Y-118690476D01*
X68571904Y-118738095D01*
X67095714Y-118452380D02*
X67571904Y-118452380D01*
X67619523Y-118928571D01*
X67571904Y-118880952D01*
X67476666Y-118833333D01*
X67238571Y-118833333D01*
X67143333Y-118880952D01*
X67095714Y-118928571D01*
X67048095Y-119023809D01*
X67048095Y-119261904D01*
X67095714Y-119357142D01*
X67143333Y-119404761D01*
X67238571Y-119452380D01*
X67476666Y-119452380D01*
X67571904Y-119404761D01*
X67619523Y-119357142D01*
%TO.C,D16*%
X69524285Y-138452380D02*
X69524285Y-137452380D01*
X69286190Y-137452380D01*
X69143333Y-137500000D01*
X69048095Y-137595238D01*
X69000476Y-137690476D01*
X68952857Y-137880952D01*
X68952857Y-138023809D01*
X69000476Y-138214285D01*
X69048095Y-138309523D01*
X69143333Y-138404761D01*
X69286190Y-138452380D01*
X69524285Y-138452380D01*
X68000476Y-138452380D02*
X68571904Y-138452380D01*
X68286190Y-138452380D02*
X68286190Y-137452380D01*
X68381428Y-137595238D01*
X68476666Y-137690476D01*
X68571904Y-137738095D01*
X67143333Y-137452380D02*
X67333809Y-137452380D01*
X67429047Y-137500000D01*
X67476666Y-137547619D01*
X67571904Y-137690476D01*
X67619523Y-137880952D01*
X67619523Y-138261904D01*
X67571904Y-138357142D01*
X67524285Y-138404761D01*
X67429047Y-138452380D01*
X67238571Y-138452380D01*
X67143333Y-138404761D01*
X67095714Y-138357142D01*
X67048095Y-138261904D01*
X67048095Y-138023809D01*
X67095714Y-137928571D01*
X67143333Y-137880952D01*
X67238571Y-137833333D01*
X67429047Y-137833333D01*
X67524285Y-137880952D01*
X67571904Y-137928571D01*
X67619523Y-138023809D01*
%TO.C,D17*%
X88574285Y-81452380D02*
X88574285Y-80452380D01*
X88336190Y-80452380D01*
X88193333Y-80500000D01*
X88098095Y-80595238D01*
X88050476Y-80690476D01*
X88002857Y-80880952D01*
X88002857Y-81023809D01*
X88050476Y-81214285D01*
X88098095Y-81309523D01*
X88193333Y-81404761D01*
X88336190Y-81452380D01*
X88574285Y-81452380D01*
X87050476Y-81452380D02*
X87621904Y-81452380D01*
X87336190Y-81452380D02*
X87336190Y-80452380D01*
X87431428Y-80595238D01*
X87526666Y-80690476D01*
X87621904Y-80738095D01*
X86717142Y-80452380D02*
X86050476Y-80452380D01*
X86479047Y-81452380D01*
%TO.C,D18*%
X88574285Y-100452380D02*
X88574285Y-99452380D01*
X88336190Y-99452380D01*
X88193333Y-99500000D01*
X88098095Y-99595238D01*
X88050476Y-99690476D01*
X88002857Y-99880952D01*
X88002857Y-100023809D01*
X88050476Y-100214285D01*
X88098095Y-100309523D01*
X88193333Y-100404761D01*
X88336190Y-100452380D01*
X88574285Y-100452380D01*
X87050476Y-100452380D02*
X87621904Y-100452380D01*
X87336190Y-100452380D02*
X87336190Y-99452380D01*
X87431428Y-99595238D01*
X87526666Y-99690476D01*
X87621904Y-99738095D01*
X86479047Y-99880952D02*
X86574285Y-99833333D01*
X86621904Y-99785714D01*
X86669523Y-99690476D01*
X86669523Y-99642857D01*
X86621904Y-99547619D01*
X86574285Y-99500000D01*
X86479047Y-99452380D01*
X86288571Y-99452380D01*
X86193333Y-99500000D01*
X86145714Y-99547619D01*
X86098095Y-99642857D01*
X86098095Y-99690476D01*
X86145714Y-99785714D01*
X86193333Y-99833333D01*
X86288571Y-99880952D01*
X86479047Y-99880952D01*
X86574285Y-99928571D01*
X86621904Y-99976190D01*
X86669523Y-100071428D01*
X86669523Y-100261904D01*
X86621904Y-100357142D01*
X86574285Y-100404761D01*
X86479047Y-100452380D01*
X86288571Y-100452380D01*
X86193333Y-100404761D01*
X86145714Y-100357142D01*
X86098095Y-100261904D01*
X86098095Y-100071428D01*
X86145714Y-99976190D01*
X86193333Y-99928571D01*
X86288571Y-99880952D01*
%TO.C,D19*%
X88574285Y-119452380D02*
X88574285Y-118452380D01*
X88336190Y-118452380D01*
X88193333Y-118500000D01*
X88098095Y-118595238D01*
X88050476Y-118690476D01*
X88002857Y-118880952D01*
X88002857Y-119023809D01*
X88050476Y-119214285D01*
X88098095Y-119309523D01*
X88193333Y-119404761D01*
X88336190Y-119452380D01*
X88574285Y-119452380D01*
X87050476Y-119452380D02*
X87621904Y-119452380D01*
X87336190Y-119452380D02*
X87336190Y-118452380D01*
X87431428Y-118595238D01*
X87526666Y-118690476D01*
X87621904Y-118738095D01*
X86574285Y-119452380D02*
X86383809Y-119452380D01*
X86288571Y-119404761D01*
X86240952Y-119357142D01*
X86145714Y-119214285D01*
X86098095Y-119023809D01*
X86098095Y-118642857D01*
X86145714Y-118547619D01*
X86193333Y-118500000D01*
X86288571Y-118452380D01*
X86479047Y-118452380D01*
X86574285Y-118500000D01*
X86621904Y-118547619D01*
X86669523Y-118642857D01*
X86669523Y-118880952D01*
X86621904Y-118976190D01*
X86574285Y-119023809D01*
X86479047Y-119071428D01*
X86288571Y-119071428D01*
X86193333Y-119023809D01*
X86145714Y-118976190D01*
X86098095Y-118880952D01*
%TO.C,D20*%
X88574285Y-138452380D02*
X88574285Y-137452380D01*
X88336190Y-137452380D01*
X88193333Y-137500000D01*
X88098095Y-137595238D01*
X88050476Y-137690476D01*
X88002857Y-137880952D01*
X88002857Y-138023809D01*
X88050476Y-138214285D01*
X88098095Y-138309523D01*
X88193333Y-138404761D01*
X88336190Y-138452380D01*
X88574285Y-138452380D01*
X87621904Y-137547619D02*
X87574285Y-137500000D01*
X87479047Y-137452380D01*
X87240952Y-137452380D01*
X87145714Y-137500000D01*
X87098095Y-137547619D01*
X87050476Y-137642857D01*
X87050476Y-137738095D01*
X87098095Y-137880952D01*
X87669523Y-138452380D01*
X87050476Y-138452380D01*
X86431428Y-137452380D02*
X86336190Y-137452380D01*
X86240952Y-137500000D01*
X86193333Y-137547619D01*
X86145714Y-137642857D01*
X86098095Y-137833333D01*
X86098095Y-138071428D01*
X86145714Y-138261904D01*
X86193333Y-138357142D01*
X86240952Y-138404761D01*
X86336190Y-138452380D01*
X86431428Y-138452380D01*
X86526666Y-138404761D01*
X86574285Y-138357142D01*
X86621904Y-138261904D01*
X86669523Y-138071428D01*
X86669523Y-137833333D01*
X86621904Y-137642857D01*
X86574285Y-137547619D01*
X86526666Y-137500000D01*
X86431428Y-137452380D01*
%TO.C,D21*%
X107624285Y-81452380D02*
X107624285Y-80452380D01*
X107386190Y-80452380D01*
X107243333Y-80500000D01*
X107148095Y-80595238D01*
X107100476Y-80690476D01*
X107052857Y-80880952D01*
X107052857Y-81023809D01*
X107100476Y-81214285D01*
X107148095Y-81309523D01*
X107243333Y-81404761D01*
X107386190Y-81452380D01*
X107624285Y-81452380D01*
X106671904Y-80547619D02*
X106624285Y-80500000D01*
X106529047Y-80452380D01*
X106290952Y-80452380D01*
X106195714Y-80500000D01*
X106148095Y-80547619D01*
X106100476Y-80642857D01*
X106100476Y-80738095D01*
X106148095Y-80880952D01*
X106719523Y-81452380D01*
X106100476Y-81452380D01*
X105148095Y-81452380D02*
X105719523Y-81452380D01*
X105433809Y-81452380D02*
X105433809Y-80452380D01*
X105529047Y-80595238D01*
X105624285Y-80690476D01*
X105719523Y-80738095D01*
%TO.C,D22*%
X107624285Y-100452380D02*
X107624285Y-99452380D01*
X107386190Y-99452380D01*
X107243333Y-99500000D01*
X107148095Y-99595238D01*
X107100476Y-99690476D01*
X107052857Y-99880952D01*
X107052857Y-100023809D01*
X107100476Y-100214285D01*
X107148095Y-100309523D01*
X107243333Y-100404761D01*
X107386190Y-100452380D01*
X107624285Y-100452380D01*
X106671904Y-99547619D02*
X106624285Y-99500000D01*
X106529047Y-99452380D01*
X106290952Y-99452380D01*
X106195714Y-99500000D01*
X106148095Y-99547619D01*
X106100476Y-99642857D01*
X106100476Y-99738095D01*
X106148095Y-99880952D01*
X106719523Y-100452380D01*
X106100476Y-100452380D01*
X105719523Y-99547619D02*
X105671904Y-99500000D01*
X105576666Y-99452380D01*
X105338571Y-99452380D01*
X105243333Y-99500000D01*
X105195714Y-99547619D01*
X105148095Y-99642857D01*
X105148095Y-99738095D01*
X105195714Y-99880952D01*
X105767142Y-100452380D01*
X105148095Y-100452380D01*
%TO.C,D23*%
X107624285Y-119452380D02*
X107624285Y-118452380D01*
X107386190Y-118452380D01*
X107243333Y-118500000D01*
X107148095Y-118595238D01*
X107100476Y-118690476D01*
X107052857Y-118880952D01*
X107052857Y-119023809D01*
X107100476Y-119214285D01*
X107148095Y-119309523D01*
X107243333Y-119404761D01*
X107386190Y-119452380D01*
X107624285Y-119452380D01*
X106671904Y-118547619D02*
X106624285Y-118500000D01*
X106529047Y-118452380D01*
X106290952Y-118452380D01*
X106195714Y-118500000D01*
X106148095Y-118547619D01*
X106100476Y-118642857D01*
X106100476Y-118738095D01*
X106148095Y-118880952D01*
X106719523Y-119452380D01*
X106100476Y-119452380D01*
X105767142Y-118452380D02*
X105148095Y-118452380D01*
X105481428Y-118833333D01*
X105338571Y-118833333D01*
X105243333Y-118880952D01*
X105195714Y-118928571D01*
X105148095Y-119023809D01*
X105148095Y-119261904D01*
X105195714Y-119357142D01*
X105243333Y-119404761D01*
X105338571Y-119452380D01*
X105624285Y-119452380D01*
X105719523Y-119404761D01*
X105767142Y-119357142D01*
%TO.C,D24*%
X107624285Y-138452380D02*
X107624285Y-137452380D01*
X107386190Y-137452380D01*
X107243333Y-137500000D01*
X107148095Y-137595238D01*
X107100476Y-137690476D01*
X107052857Y-137880952D01*
X107052857Y-138023809D01*
X107100476Y-138214285D01*
X107148095Y-138309523D01*
X107243333Y-138404761D01*
X107386190Y-138452380D01*
X107624285Y-138452380D01*
X106671904Y-137547619D02*
X106624285Y-137500000D01*
X106529047Y-137452380D01*
X106290952Y-137452380D01*
X106195714Y-137500000D01*
X106148095Y-137547619D01*
X106100476Y-137642857D01*
X106100476Y-137738095D01*
X106148095Y-137880952D01*
X106719523Y-138452380D01*
X106100476Y-138452380D01*
X105243333Y-137785714D02*
X105243333Y-138452380D01*
X105481428Y-137404761D02*
X105719523Y-138119047D01*
X105100476Y-138119047D01*
%TO.C,D25*%
X126674285Y-81452380D02*
X126674285Y-80452380D01*
X126436190Y-80452380D01*
X126293333Y-80500000D01*
X126198095Y-80595238D01*
X126150476Y-80690476D01*
X126102857Y-80880952D01*
X126102857Y-81023809D01*
X126150476Y-81214285D01*
X126198095Y-81309523D01*
X126293333Y-81404761D01*
X126436190Y-81452380D01*
X126674285Y-81452380D01*
X125721904Y-80547619D02*
X125674285Y-80500000D01*
X125579047Y-80452380D01*
X125340952Y-80452380D01*
X125245714Y-80500000D01*
X125198095Y-80547619D01*
X125150476Y-80642857D01*
X125150476Y-80738095D01*
X125198095Y-80880952D01*
X125769523Y-81452380D01*
X125150476Y-81452380D01*
X124245714Y-80452380D02*
X124721904Y-80452380D01*
X124769523Y-80928571D01*
X124721904Y-80880952D01*
X124626666Y-80833333D01*
X124388571Y-80833333D01*
X124293333Y-80880952D01*
X124245714Y-80928571D01*
X124198095Y-81023809D01*
X124198095Y-81261904D01*
X124245714Y-81357142D01*
X124293333Y-81404761D01*
X124388571Y-81452380D01*
X124626666Y-81452380D01*
X124721904Y-81404761D01*
X124769523Y-81357142D01*
%TO.C,D26*%
X126674285Y-100452380D02*
X126674285Y-99452380D01*
X126436190Y-99452380D01*
X126293333Y-99500000D01*
X126198095Y-99595238D01*
X126150476Y-99690476D01*
X126102857Y-99880952D01*
X126102857Y-100023809D01*
X126150476Y-100214285D01*
X126198095Y-100309523D01*
X126293333Y-100404761D01*
X126436190Y-100452380D01*
X126674285Y-100452380D01*
X125721904Y-99547619D02*
X125674285Y-99500000D01*
X125579047Y-99452380D01*
X125340952Y-99452380D01*
X125245714Y-99500000D01*
X125198095Y-99547619D01*
X125150476Y-99642857D01*
X125150476Y-99738095D01*
X125198095Y-99880952D01*
X125769523Y-100452380D01*
X125150476Y-100452380D01*
X124293333Y-99452380D02*
X124483809Y-99452380D01*
X124579047Y-99500000D01*
X124626666Y-99547619D01*
X124721904Y-99690476D01*
X124769523Y-99880952D01*
X124769523Y-100261904D01*
X124721904Y-100357142D01*
X124674285Y-100404761D01*
X124579047Y-100452380D01*
X124388571Y-100452380D01*
X124293333Y-100404761D01*
X124245714Y-100357142D01*
X124198095Y-100261904D01*
X124198095Y-100023809D01*
X124245714Y-99928571D01*
X124293333Y-99880952D01*
X124388571Y-99833333D01*
X124579047Y-99833333D01*
X124674285Y-99880952D01*
X124721904Y-99928571D01*
X124769523Y-100023809D01*
%TO.C,D27*%
X126674285Y-119452380D02*
X126674285Y-118452380D01*
X126436190Y-118452380D01*
X126293333Y-118500000D01*
X126198095Y-118595238D01*
X126150476Y-118690476D01*
X126102857Y-118880952D01*
X126102857Y-119023809D01*
X126150476Y-119214285D01*
X126198095Y-119309523D01*
X126293333Y-119404761D01*
X126436190Y-119452380D01*
X126674285Y-119452380D01*
X125721904Y-118547619D02*
X125674285Y-118500000D01*
X125579047Y-118452380D01*
X125340952Y-118452380D01*
X125245714Y-118500000D01*
X125198095Y-118547619D01*
X125150476Y-118642857D01*
X125150476Y-118738095D01*
X125198095Y-118880952D01*
X125769523Y-119452380D01*
X125150476Y-119452380D01*
X124817142Y-118452380D02*
X124150476Y-118452380D01*
X124579047Y-119452380D01*
%TO.C,D28*%
X126674285Y-138452380D02*
X126674285Y-137452380D01*
X126436190Y-137452380D01*
X126293333Y-137500000D01*
X126198095Y-137595238D01*
X126150476Y-137690476D01*
X126102857Y-137880952D01*
X126102857Y-138023809D01*
X126150476Y-138214285D01*
X126198095Y-138309523D01*
X126293333Y-138404761D01*
X126436190Y-138452380D01*
X126674285Y-138452380D01*
X125721904Y-137547619D02*
X125674285Y-137500000D01*
X125579047Y-137452380D01*
X125340952Y-137452380D01*
X125245714Y-137500000D01*
X125198095Y-137547619D01*
X125150476Y-137642857D01*
X125150476Y-137738095D01*
X125198095Y-137880952D01*
X125769523Y-138452380D01*
X125150476Y-138452380D01*
X124579047Y-137880952D02*
X124674285Y-137833333D01*
X124721904Y-137785714D01*
X124769523Y-137690476D01*
X124769523Y-137642857D01*
X124721904Y-137547619D01*
X124674285Y-137500000D01*
X124579047Y-137452380D01*
X124388571Y-137452380D01*
X124293333Y-137500000D01*
X124245714Y-137547619D01*
X124198095Y-137642857D01*
X124198095Y-137690476D01*
X124245714Y-137785714D01*
X124293333Y-137833333D01*
X124388571Y-137880952D01*
X124579047Y-137880952D01*
X124674285Y-137928571D01*
X124721904Y-137976190D01*
X124769523Y-138071428D01*
X124769523Y-138261904D01*
X124721904Y-138357142D01*
X124674285Y-138404761D01*
X124579047Y-138452380D01*
X124388571Y-138452380D01*
X124293333Y-138404761D01*
X124245714Y-138357142D01*
X124198095Y-138261904D01*
X124198095Y-138071428D01*
X124245714Y-137976190D01*
X124293333Y-137928571D01*
X124388571Y-137880952D01*
%TO.C,D29*%
X145724285Y-81452380D02*
X145724285Y-80452380D01*
X145486190Y-80452380D01*
X145343333Y-80500000D01*
X145248095Y-80595238D01*
X145200476Y-80690476D01*
X145152857Y-80880952D01*
X145152857Y-81023809D01*
X145200476Y-81214285D01*
X145248095Y-81309523D01*
X145343333Y-81404761D01*
X145486190Y-81452380D01*
X145724285Y-81452380D01*
X144771904Y-80547619D02*
X144724285Y-80500000D01*
X144629047Y-80452380D01*
X144390952Y-80452380D01*
X144295714Y-80500000D01*
X144248095Y-80547619D01*
X144200476Y-80642857D01*
X144200476Y-80738095D01*
X144248095Y-80880952D01*
X144819523Y-81452380D01*
X144200476Y-81452380D01*
X143724285Y-81452380D02*
X143533809Y-81452380D01*
X143438571Y-81404761D01*
X143390952Y-81357142D01*
X143295714Y-81214285D01*
X143248095Y-81023809D01*
X143248095Y-80642857D01*
X143295714Y-80547619D01*
X143343333Y-80500000D01*
X143438571Y-80452380D01*
X143629047Y-80452380D01*
X143724285Y-80500000D01*
X143771904Y-80547619D01*
X143819523Y-80642857D01*
X143819523Y-80880952D01*
X143771904Y-80976190D01*
X143724285Y-81023809D01*
X143629047Y-81071428D01*
X143438571Y-81071428D01*
X143343333Y-81023809D01*
X143295714Y-80976190D01*
X143248095Y-80880952D01*
%TO.C,D30*%
X145724285Y-100452380D02*
X145724285Y-99452380D01*
X145486190Y-99452380D01*
X145343333Y-99500000D01*
X145248095Y-99595238D01*
X145200476Y-99690476D01*
X145152857Y-99880952D01*
X145152857Y-100023809D01*
X145200476Y-100214285D01*
X145248095Y-100309523D01*
X145343333Y-100404761D01*
X145486190Y-100452380D01*
X145724285Y-100452380D01*
X144819523Y-99452380D02*
X144200476Y-99452380D01*
X144533809Y-99833333D01*
X144390952Y-99833333D01*
X144295714Y-99880952D01*
X144248095Y-99928571D01*
X144200476Y-100023809D01*
X144200476Y-100261904D01*
X144248095Y-100357142D01*
X144295714Y-100404761D01*
X144390952Y-100452380D01*
X144676666Y-100452380D01*
X144771904Y-100404761D01*
X144819523Y-100357142D01*
X143581428Y-99452380D02*
X143486190Y-99452380D01*
X143390952Y-99500000D01*
X143343333Y-99547619D01*
X143295714Y-99642857D01*
X143248095Y-99833333D01*
X143248095Y-100071428D01*
X143295714Y-100261904D01*
X143343333Y-100357142D01*
X143390952Y-100404761D01*
X143486190Y-100452380D01*
X143581428Y-100452380D01*
X143676666Y-100404761D01*
X143724285Y-100357142D01*
X143771904Y-100261904D01*
X143819523Y-100071428D01*
X143819523Y-99833333D01*
X143771904Y-99642857D01*
X143724285Y-99547619D01*
X143676666Y-99500000D01*
X143581428Y-99452380D01*
%TO.C,D31*%
X145724285Y-119452380D02*
X145724285Y-118452380D01*
X145486190Y-118452380D01*
X145343333Y-118500000D01*
X145248095Y-118595238D01*
X145200476Y-118690476D01*
X145152857Y-118880952D01*
X145152857Y-119023809D01*
X145200476Y-119214285D01*
X145248095Y-119309523D01*
X145343333Y-119404761D01*
X145486190Y-119452380D01*
X145724285Y-119452380D01*
X144819523Y-118452380D02*
X144200476Y-118452380D01*
X144533809Y-118833333D01*
X144390952Y-118833333D01*
X144295714Y-118880952D01*
X144248095Y-118928571D01*
X144200476Y-119023809D01*
X144200476Y-119261904D01*
X144248095Y-119357142D01*
X144295714Y-119404761D01*
X144390952Y-119452380D01*
X144676666Y-119452380D01*
X144771904Y-119404761D01*
X144819523Y-119357142D01*
X143248095Y-119452380D02*
X143819523Y-119452380D01*
X143533809Y-119452380D02*
X143533809Y-118452380D01*
X143629047Y-118595238D01*
X143724285Y-118690476D01*
X143819523Y-118738095D01*
%TO.C,D32*%
X145724285Y-138452380D02*
X145724285Y-137452380D01*
X145486190Y-137452380D01*
X145343333Y-137500000D01*
X145248095Y-137595238D01*
X145200476Y-137690476D01*
X145152857Y-137880952D01*
X145152857Y-138023809D01*
X145200476Y-138214285D01*
X145248095Y-138309523D01*
X145343333Y-138404761D01*
X145486190Y-138452380D01*
X145724285Y-138452380D01*
X144819523Y-137452380D02*
X144200476Y-137452380D01*
X144533809Y-137833333D01*
X144390952Y-137833333D01*
X144295714Y-137880952D01*
X144248095Y-137928571D01*
X144200476Y-138023809D01*
X144200476Y-138261904D01*
X144248095Y-138357142D01*
X144295714Y-138404761D01*
X144390952Y-138452380D01*
X144676666Y-138452380D01*
X144771904Y-138404761D01*
X144819523Y-138357142D01*
X143819523Y-137547619D02*
X143771904Y-137500000D01*
X143676666Y-137452380D01*
X143438571Y-137452380D01*
X143343333Y-137500000D01*
X143295714Y-137547619D01*
X143248095Y-137642857D01*
X143248095Y-137738095D01*
X143295714Y-137880952D01*
X143867142Y-138452380D01*
X143248095Y-138452380D01*
%TO.C,D33*%
X164774285Y-81452380D02*
X164774285Y-80452380D01*
X164536190Y-80452380D01*
X164393333Y-80500000D01*
X164298095Y-80595238D01*
X164250476Y-80690476D01*
X164202857Y-80880952D01*
X164202857Y-81023809D01*
X164250476Y-81214285D01*
X164298095Y-81309523D01*
X164393333Y-81404761D01*
X164536190Y-81452380D01*
X164774285Y-81452380D01*
X163869523Y-80452380D02*
X163250476Y-80452380D01*
X163583809Y-80833333D01*
X163440952Y-80833333D01*
X163345714Y-80880952D01*
X163298095Y-80928571D01*
X163250476Y-81023809D01*
X163250476Y-81261904D01*
X163298095Y-81357142D01*
X163345714Y-81404761D01*
X163440952Y-81452380D01*
X163726666Y-81452380D01*
X163821904Y-81404761D01*
X163869523Y-81357142D01*
X162917142Y-80452380D02*
X162298095Y-80452380D01*
X162631428Y-80833333D01*
X162488571Y-80833333D01*
X162393333Y-80880952D01*
X162345714Y-80928571D01*
X162298095Y-81023809D01*
X162298095Y-81261904D01*
X162345714Y-81357142D01*
X162393333Y-81404761D01*
X162488571Y-81452380D01*
X162774285Y-81452380D01*
X162869523Y-81404761D01*
X162917142Y-81357142D01*
%TO.C,D34*%
X164774285Y-100452380D02*
X164774285Y-99452380D01*
X164536190Y-99452380D01*
X164393333Y-99500000D01*
X164298095Y-99595238D01*
X164250476Y-99690476D01*
X164202857Y-99880952D01*
X164202857Y-100023809D01*
X164250476Y-100214285D01*
X164298095Y-100309523D01*
X164393333Y-100404761D01*
X164536190Y-100452380D01*
X164774285Y-100452380D01*
X163869523Y-99452380D02*
X163250476Y-99452380D01*
X163583809Y-99833333D01*
X163440952Y-99833333D01*
X163345714Y-99880952D01*
X163298095Y-99928571D01*
X163250476Y-100023809D01*
X163250476Y-100261904D01*
X163298095Y-100357142D01*
X163345714Y-100404761D01*
X163440952Y-100452380D01*
X163726666Y-100452380D01*
X163821904Y-100404761D01*
X163869523Y-100357142D01*
X162393333Y-99785714D02*
X162393333Y-100452380D01*
X162631428Y-99404761D02*
X162869523Y-100119047D01*
X162250476Y-100119047D01*
%TO.C,D35*%
X164774285Y-119452380D02*
X164774285Y-118452380D01*
X164536190Y-118452380D01*
X164393333Y-118500000D01*
X164298095Y-118595238D01*
X164250476Y-118690476D01*
X164202857Y-118880952D01*
X164202857Y-119023809D01*
X164250476Y-119214285D01*
X164298095Y-119309523D01*
X164393333Y-119404761D01*
X164536190Y-119452380D01*
X164774285Y-119452380D01*
X163869523Y-118452380D02*
X163250476Y-118452380D01*
X163583809Y-118833333D01*
X163440952Y-118833333D01*
X163345714Y-118880952D01*
X163298095Y-118928571D01*
X163250476Y-119023809D01*
X163250476Y-119261904D01*
X163298095Y-119357142D01*
X163345714Y-119404761D01*
X163440952Y-119452380D01*
X163726666Y-119452380D01*
X163821904Y-119404761D01*
X163869523Y-119357142D01*
X162345714Y-118452380D02*
X162821904Y-118452380D01*
X162869523Y-118928571D01*
X162821904Y-118880952D01*
X162726666Y-118833333D01*
X162488571Y-118833333D01*
X162393333Y-118880952D01*
X162345714Y-118928571D01*
X162298095Y-119023809D01*
X162298095Y-119261904D01*
X162345714Y-119357142D01*
X162393333Y-119404761D01*
X162488571Y-119452380D01*
X162726666Y-119452380D01*
X162821904Y-119404761D01*
X162869523Y-119357142D01*
%TO.C,D36*%
X164774285Y-138452380D02*
X164774285Y-137452380D01*
X164536190Y-137452380D01*
X164393333Y-137500000D01*
X164298095Y-137595238D01*
X164250476Y-137690476D01*
X164202857Y-137880952D01*
X164202857Y-138023809D01*
X164250476Y-138214285D01*
X164298095Y-138309523D01*
X164393333Y-138404761D01*
X164536190Y-138452380D01*
X164774285Y-138452380D01*
X163869523Y-137452380D02*
X163250476Y-137452380D01*
X163583809Y-137833333D01*
X163440952Y-137833333D01*
X163345714Y-137880952D01*
X163298095Y-137928571D01*
X163250476Y-138023809D01*
X163250476Y-138261904D01*
X163298095Y-138357142D01*
X163345714Y-138404761D01*
X163440952Y-138452380D01*
X163726666Y-138452380D01*
X163821904Y-138404761D01*
X163869523Y-138357142D01*
X162393333Y-137452380D02*
X162583809Y-137452380D01*
X162679047Y-137500000D01*
X162726666Y-137547619D01*
X162821904Y-137690476D01*
X162869523Y-137880952D01*
X162869523Y-138261904D01*
X162821904Y-138357142D01*
X162774285Y-138404761D01*
X162679047Y-138452380D01*
X162488571Y-138452380D01*
X162393333Y-138404761D01*
X162345714Y-138357142D01*
X162298095Y-138261904D01*
X162298095Y-138023809D01*
X162345714Y-137928571D01*
X162393333Y-137880952D01*
X162488571Y-137833333D01*
X162679047Y-137833333D01*
X162774285Y-137880952D01*
X162821904Y-137928571D01*
X162869523Y-138023809D01*
%TO.C,D37*%
X183824285Y-81452380D02*
X183824285Y-80452380D01*
X183586190Y-80452380D01*
X183443333Y-80500000D01*
X183348095Y-80595238D01*
X183300476Y-80690476D01*
X183252857Y-80880952D01*
X183252857Y-81023809D01*
X183300476Y-81214285D01*
X183348095Y-81309523D01*
X183443333Y-81404761D01*
X183586190Y-81452380D01*
X183824285Y-81452380D01*
X182919523Y-80452380D02*
X182300476Y-80452380D01*
X182633809Y-80833333D01*
X182490952Y-80833333D01*
X182395714Y-80880952D01*
X182348095Y-80928571D01*
X182300476Y-81023809D01*
X182300476Y-81261904D01*
X182348095Y-81357142D01*
X182395714Y-81404761D01*
X182490952Y-81452380D01*
X182776666Y-81452380D01*
X182871904Y-81404761D01*
X182919523Y-81357142D01*
X181967142Y-80452380D02*
X181300476Y-80452380D01*
X181729047Y-81452380D01*
%TO.C,D38*%
X183824285Y-100452380D02*
X183824285Y-99452380D01*
X183586190Y-99452380D01*
X183443333Y-99500000D01*
X183348095Y-99595238D01*
X183300476Y-99690476D01*
X183252857Y-99880952D01*
X183252857Y-100023809D01*
X183300476Y-100214285D01*
X183348095Y-100309523D01*
X183443333Y-100404761D01*
X183586190Y-100452380D01*
X183824285Y-100452380D01*
X182919523Y-99452380D02*
X182300476Y-99452380D01*
X182633809Y-99833333D01*
X182490952Y-99833333D01*
X182395714Y-99880952D01*
X182348095Y-99928571D01*
X182300476Y-100023809D01*
X182300476Y-100261904D01*
X182348095Y-100357142D01*
X182395714Y-100404761D01*
X182490952Y-100452380D01*
X182776666Y-100452380D01*
X182871904Y-100404761D01*
X182919523Y-100357142D01*
X181729047Y-99880952D02*
X181824285Y-99833333D01*
X181871904Y-99785714D01*
X181919523Y-99690476D01*
X181919523Y-99642857D01*
X181871904Y-99547619D01*
X181824285Y-99500000D01*
X181729047Y-99452380D01*
X181538571Y-99452380D01*
X181443333Y-99500000D01*
X181395714Y-99547619D01*
X181348095Y-99642857D01*
X181348095Y-99690476D01*
X181395714Y-99785714D01*
X181443333Y-99833333D01*
X181538571Y-99880952D01*
X181729047Y-99880952D01*
X181824285Y-99928571D01*
X181871904Y-99976190D01*
X181919523Y-100071428D01*
X181919523Y-100261904D01*
X181871904Y-100357142D01*
X181824285Y-100404761D01*
X181729047Y-100452380D01*
X181538571Y-100452380D01*
X181443333Y-100404761D01*
X181395714Y-100357142D01*
X181348095Y-100261904D01*
X181348095Y-100071428D01*
X181395714Y-99976190D01*
X181443333Y-99928571D01*
X181538571Y-99880952D01*
%TO.C,D39*%
X183824285Y-119452380D02*
X183824285Y-118452380D01*
X183586190Y-118452380D01*
X183443333Y-118500000D01*
X183348095Y-118595238D01*
X183300476Y-118690476D01*
X183252857Y-118880952D01*
X183252857Y-119023809D01*
X183300476Y-119214285D01*
X183348095Y-119309523D01*
X183443333Y-119404761D01*
X183586190Y-119452380D01*
X183824285Y-119452380D01*
X182919523Y-118452380D02*
X182300476Y-118452380D01*
X182633809Y-118833333D01*
X182490952Y-118833333D01*
X182395714Y-118880952D01*
X182348095Y-118928571D01*
X182300476Y-119023809D01*
X182300476Y-119261904D01*
X182348095Y-119357142D01*
X182395714Y-119404761D01*
X182490952Y-119452380D01*
X182776666Y-119452380D01*
X182871904Y-119404761D01*
X182919523Y-119357142D01*
X181824285Y-119452380D02*
X181633809Y-119452380D01*
X181538571Y-119404761D01*
X181490952Y-119357142D01*
X181395714Y-119214285D01*
X181348095Y-119023809D01*
X181348095Y-118642857D01*
X181395714Y-118547619D01*
X181443333Y-118500000D01*
X181538571Y-118452380D01*
X181729047Y-118452380D01*
X181824285Y-118500000D01*
X181871904Y-118547619D01*
X181919523Y-118642857D01*
X181919523Y-118880952D01*
X181871904Y-118976190D01*
X181824285Y-119023809D01*
X181729047Y-119071428D01*
X181538571Y-119071428D01*
X181443333Y-119023809D01*
X181395714Y-118976190D01*
X181348095Y-118880952D01*
%TO.C,D40*%
X183824285Y-138452380D02*
X183824285Y-137452380D01*
X183586190Y-137452380D01*
X183443333Y-137500000D01*
X183348095Y-137595238D01*
X183300476Y-137690476D01*
X183252857Y-137880952D01*
X183252857Y-138023809D01*
X183300476Y-138214285D01*
X183348095Y-138309523D01*
X183443333Y-138404761D01*
X183586190Y-138452380D01*
X183824285Y-138452380D01*
X182395714Y-137785714D02*
X182395714Y-138452380D01*
X182633809Y-137404761D02*
X182871904Y-138119047D01*
X182252857Y-138119047D01*
X181681428Y-137452380D02*
X181586190Y-137452380D01*
X181490952Y-137500000D01*
X181443333Y-137547619D01*
X181395714Y-137642857D01*
X181348095Y-137833333D01*
X181348095Y-138071428D01*
X181395714Y-138261904D01*
X181443333Y-138357142D01*
X181490952Y-138404761D01*
X181586190Y-138452380D01*
X181681428Y-138452380D01*
X181776666Y-138404761D01*
X181824285Y-138357142D01*
X181871904Y-138261904D01*
X181919523Y-138071428D01*
X181919523Y-137833333D01*
X181871904Y-137642857D01*
X181824285Y-137547619D01*
X181776666Y-137500000D01*
X181681428Y-137452380D01*
%TO.C,D41*%
X202874285Y-81452380D02*
X202874285Y-80452380D01*
X202636190Y-80452380D01*
X202493333Y-80500000D01*
X202398095Y-80595238D01*
X202350476Y-80690476D01*
X202302857Y-80880952D01*
X202302857Y-81023809D01*
X202350476Y-81214285D01*
X202398095Y-81309523D01*
X202493333Y-81404761D01*
X202636190Y-81452380D01*
X202874285Y-81452380D01*
X201445714Y-80785714D02*
X201445714Y-81452380D01*
X201683809Y-80404761D02*
X201921904Y-81119047D01*
X201302857Y-81119047D01*
X200398095Y-81452380D02*
X200969523Y-81452380D01*
X200683809Y-81452380D02*
X200683809Y-80452380D01*
X200779047Y-80595238D01*
X200874285Y-80690476D01*
X200969523Y-80738095D01*
%TO.C,D42*%
X202874285Y-100452380D02*
X202874285Y-99452380D01*
X202636190Y-99452380D01*
X202493333Y-99500000D01*
X202398095Y-99595238D01*
X202350476Y-99690476D01*
X202302857Y-99880952D01*
X202302857Y-100023809D01*
X202350476Y-100214285D01*
X202398095Y-100309523D01*
X202493333Y-100404761D01*
X202636190Y-100452380D01*
X202874285Y-100452380D01*
X201445714Y-99785714D02*
X201445714Y-100452380D01*
X201683809Y-99404761D02*
X201921904Y-100119047D01*
X201302857Y-100119047D01*
X200969523Y-99547619D02*
X200921904Y-99500000D01*
X200826666Y-99452380D01*
X200588571Y-99452380D01*
X200493333Y-99500000D01*
X200445714Y-99547619D01*
X200398095Y-99642857D01*
X200398095Y-99738095D01*
X200445714Y-99880952D01*
X201017142Y-100452380D01*
X200398095Y-100452380D01*
%TO.C,D43*%
X202874285Y-119452380D02*
X202874285Y-118452380D01*
X202636190Y-118452380D01*
X202493333Y-118500000D01*
X202398095Y-118595238D01*
X202350476Y-118690476D01*
X202302857Y-118880952D01*
X202302857Y-119023809D01*
X202350476Y-119214285D01*
X202398095Y-119309523D01*
X202493333Y-119404761D01*
X202636190Y-119452380D01*
X202874285Y-119452380D01*
X201445714Y-118785714D02*
X201445714Y-119452380D01*
X201683809Y-118404761D02*
X201921904Y-119119047D01*
X201302857Y-119119047D01*
X201017142Y-118452380D02*
X200398095Y-118452380D01*
X200731428Y-118833333D01*
X200588571Y-118833333D01*
X200493333Y-118880952D01*
X200445714Y-118928571D01*
X200398095Y-119023809D01*
X200398095Y-119261904D01*
X200445714Y-119357142D01*
X200493333Y-119404761D01*
X200588571Y-119452380D01*
X200874285Y-119452380D01*
X200969523Y-119404761D01*
X201017142Y-119357142D01*
%TO.C,D44*%
X202874285Y-138452380D02*
X202874285Y-137452380D01*
X202636190Y-137452380D01*
X202493333Y-137500000D01*
X202398095Y-137595238D01*
X202350476Y-137690476D01*
X202302857Y-137880952D01*
X202302857Y-138023809D01*
X202350476Y-138214285D01*
X202398095Y-138309523D01*
X202493333Y-138404761D01*
X202636190Y-138452380D01*
X202874285Y-138452380D01*
X201445714Y-137785714D02*
X201445714Y-138452380D01*
X201683809Y-137404761D02*
X201921904Y-138119047D01*
X201302857Y-138119047D01*
X200493333Y-137785714D02*
X200493333Y-138452380D01*
X200731428Y-137404761D02*
X200969523Y-138119047D01*
X200350476Y-138119047D01*
%TO.C,D45*%
X221924285Y-81452380D02*
X221924285Y-80452380D01*
X221686190Y-80452380D01*
X221543333Y-80500000D01*
X221448095Y-80595238D01*
X221400476Y-80690476D01*
X221352857Y-80880952D01*
X221352857Y-81023809D01*
X221400476Y-81214285D01*
X221448095Y-81309523D01*
X221543333Y-81404761D01*
X221686190Y-81452380D01*
X221924285Y-81452380D01*
X220495714Y-80785714D02*
X220495714Y-81452380D01*
X220733809Y-80404761D02*
X220971904Y-81119047D01*
X220352857Y-81119047D01*
X219495714Y-80452380D02*
X219971904Y-80452380D01*
X220019523Y-80928571D01*
X219971904Y-80880952D01*
X219876666Y-80833333D01*
X219638571Y-80833333D01*
X219543333Y-80880952D01*
X219495714Y-80928571D01*
X219448095Y-81023809D01*
X219448095Y-81261904D01*
X219495714Y-81357142D01*
X219543333Y-81404761D01*
X219638571Y-81452380D01*
X219876666Y-81452380D01*
X219971904Y-81404761D01*
X220019523Y-81357142D01*
%TO.C,D46*%
X221924285Y-100452380D02*
X221924285Y-99452380D01*
X221686190Y-99452380D01*
X221543333Y-99500000D01*
X221448095Y-99595238D01*
X221400476Y-99690476D01*
X221352857Y-99880952D01*
X221352857Y-100023809D01*
X221400476Y-100214285D01*
X221448095Y-100309523D01*
X221543333Y-100404761D01*
X221686190Y-100452380D01*
X221924285Y-100452380D01*
X220495714Y-99785714D02*
X220495714Y-100452380D01*
X220733809Y-99404761D02*
X220971904Y-100119047D01*
X220352857Y-100119047D01*
X219543333Y-99452380D02*
X219733809Y-99452380D01*
X219829047Y-99500000D01*
X219876666Y-99547619D01*
X219971904Y-99690476D01*
X220019523Y-99880952D01*
X220019523Y-100261904D01*
X219971904Y-100357142D01*
X219924285Y-100404761D01*
X219829047Y-100452380D01*
X219638571Y-100452380D01*
X219543333Y-100404761D01*
X219495714Y-100357142D01*
X219448095Y-100261904D01*
X219448095Y-100023809D01*
X219495714Y-99928571D01*
X219543333Y-99880952D01*
X219638571Y-99833333D01*
X219829047Y-99833333D01*
X219924285Y-99880952D01*
X219971904Y-99928571D01*
X220019523Y-100023809D01*
%TO.C,D47*%
X221924285Y-119452380D02*
X221924285Y-118452380D01*
X221686190Y-118452380D01*
X221543333Y-118500000D01*
X221448095Y-118595238D01*
X221400476Y-118690476D01*
X221352857Y-118880952D01*
X221352857Y-119023809D01*
X221400476Y-119214285D01*
X221448095Y-119309523D01*
X221543333Y-119404761D01*
X221686190Y-119452380D01*
X221924285Y-119452380D01*
X220495714Y-118785714D02*
X220495714Y-119452380D01*
X220733809Y-118404761D02*
X220971904Y-119119047D01*
X220352857Y-119119047D01*
X220067142Y-118452380D02*
X219400476Y-118452380D01*
X219829047Y-119452380D01*
%TO.C,D48*%
X221924285Y-138452380D02*
X221924285Y-137452380D01*
X221686190Y-137452380D01*
X221543333Y-137500000D01*
X221448095Y-137595238D01*
X221400476Y-137690476D01*
X221352857Y-137880952D01*
X221352857Y-138023809D01*
X221400476Y-138214285D01*
X221448095Y-138309523D01*
X221543333Y-138404761D01*
X221686190Y-138452380D01*
X221924285Y-138452380D01*
X220495714Y-137785714D02*
X220495714Y-138452380D01*
X220733809Y-137404761D02*
X220971904Y-138119047D01*
X220352857Y-138119047D01*
X219829047Y-137880952D02*
X219924285Y-137833333D01*
X219971904Y-137785714D01*
X220019523Y-137690476D01*
X220019523Y-137642857D01*
X219971904Y-137547619D01*
X219924285Y-137500000D01*
X219829047Y-137452380D01*
X219638571Y-137452380D01*
X219543333Y-137500000D01*
X219495714Y-137547619D01*
X219448095Y-137642857D01*
X219448095Y-137690476D01*
X219495714Y-137785714D01*
X219543333Y-137833333D01*
X219638571Y-137880952D01*
X219829047Y-137880952D01*
X219924285Y-137928571D01*
X219971904Y-137976190D01*
X220019523Y-138071428D01*
X220019523Y-138261904D01*
X219971904Y-138357142D01*
X219924285Y-138404761D01*
X219829047Y-138452380D01*
X219638571Y-138452380D01*
X219543333Y-138404761D01*
X219495714Y-138357142D01*
X219448095Y-138261904D01*
X219448095Y-138071428D01*
X219495714Y-137976190D01*
X219543333Y-137928571D01*
X219638571Y-137880952D01*
%TO.C,D49*%
X253674285Y-81452380D02*
X253674285Y-80452380D01*
X253436190Y-80452380D01*
X253293333Y-80500000D01*
X253198095Y-80595238D01*
X253150476Y-80690476D01*
X253102857Y-80880952D01*
X253102857Y-81023809D01*
X253150476Y-81214285D01*
X253198095Y-81309523D01*
X253293333Y-81404761D01*
X253436190Y-81452380D01*
X253674285Y-81452380D01*
X252245714Y-80785714D02*
X252245714Y-81452380D01*
X252483809Y-80404761D02*
X252721904Y-81119047D01*
X252102857Y-81119047D01*
X251674285Y-81452380D02*
X251483809Y-81452380D01*
X251388571Y-81404761D01*
X251340952Y-81357142D01*
X251245714Y-81214285D01*
X251198095Y-81023809D01*
X251198095Y-80642857D01*
X251245714Y-80547619D01*
X251293333Y-80500000D01*
X251388571Y-80452380D01*
X251579047Y-80452380D01*
X251674285Y-80500000D01*
X251721904Y-80547619D01*
X251769523Y-80642857D01*
X251769523Y-80880952D01*
X251721904Y-80976190D01*
X251674285Y-81023809D01*
X251579047Y-81071428D01*
X251388571Y-81071428D01*
X251293333Y-81023809D01*
X251245714Y-80976190D01*
X251198095Y-80880952D01*
%TO.C,D50*%
X253674285Y-138452380D02*
X253674285Y-137452380D01*
X253436190Y-137452380D01*
X253293333Y-137500000D01*
X253198095Y-137595238D01*
X253150476Y-137690476D01*
X253102857Y-137880952D01*
X253102857Y-138023809D01*
X253150476Y-138214285D01*
X253198095Y-138309523D01*
X253293333Y-138404761D01*
X253436190Y-138452380D01*
X253674285Y-138452380D01*
X252198095Y-137452380D02*
X252674285Y-137452380D01*
X252721904Y-137928571D01*
X252674285Y-137880952D01*
X252579047Y-137833333D01*
X252340952Y-137833333D01*
X252245714Y-137880952D01*
X252198095Y-137928571D01*
X252150476Y-138023809D01*
X252150476Y-138261904D01*
X252198095Y-138357142D01*
X252245714Y-138404761D01*
X252340952Y-138452380D01*
X252579047Y-138452380D01*
X252674285Y-138404761D01*
X252721904Y-138357142D01*
X251531428Y-137452380D02*
X251436190Y-137452380D01*
X251340952Y-137500000D01*
X251293333Y-137547619D01*
X251245714Y-137642857D01*
X251198095Y-137833333D01*
X251198095Y-138071428D01*
X251245714Y-138261904D01*
X251293333Y-138357142D01*
X251340952Y-138404761D01*
X251436190Y-138452380D01*
X251531428Y-138452380D01*
X251626666Y-138404761D01*
X251674285Y-138357142D01*
X251721904Y-138261904D01*
X251769523Y-138071428D01*
X251769523Y-137833333D01*
X251721904Y-137642857D01*
X251674285Y-137547619D01*
X251626666Y-137500000D01*
X251531428Y-137452380D01*
%TO.C,D51*%
X272724285Y-81452380D02*
X272724285Y-80452380D01*
X272486190Y-80452380D01*
X272343333Y-80500000D01*
X272248095Y-80595238D01*
X272200476Y-80690476D01*
X272152857Y-80880952D01*
X272152857Y-81023809D01*
X272200476Y-81214285D01*
X272248095Y-81309523D01*
X272343333Y-81404761D01*
X272486190Y-81452380D01*
X272724285Y-81452380D01*
X271248095Y-80452380D02*
X271724285Y-80452380D01*
X271771904Y-80928571D01*
X271724285Y-80880952D01*
X271629047Y-80833333D01*
X271390952Y-80833333D01*
X271295714Y-80880952D01*
X271248095Y-80928571D01*
X271200476Y-81023809D01*
X271200476Y-81261904D01*
X271248095Y-81357142D01*
X271295714Y-81404761D01*
X271390952Y-81452380D01*
X271629047Y-81452380D01*
X271724285Y-81404761D01*
X271771904Y-81357142D01*
X270248095Y-81452380D02*
X270819523Y-81452380D01*
X270533809Y-81452380D02*
X270533809Y-80452380D01*
X270629047Y-80595238D01*
X270724285Y-80690476D01*
X270819523Y-80738095D01*
%TO.C,D52*%
X272724285Y-119452380D02*
X272724285Y-118452380D01*
X272486190Y-118452380D01*
X272343333Y-118500000D01*
X272248095Y-118595238D01*
X272200476Y-118690476D01*
X272152857Y-118880952D01*
X272152857Y-119023809D01*
X272200476Y-119214285D01*
X272248095Y-119309523D01*
X272343333Y-119404761D01*
X272486190Y-119452380D01*
X272724285Y-119452380D01*
X271248095Y-118452380D02*
X271724285Y-118452380D01*
X271771904Y-118928571D01*
X271724285Y-118880952D01*
X271629047Y-118833333D01*
X271390952Y-118833333D01*
X271295714Y-118880952D01*
X271248095Y-118928571D01*
X271200476Y-119023809D01*
X271200476Y-119261904D01*
X271248095Y-119357142D01*
X271295714Y-119404761D01*
X271390952Y-119452380D01*
X271629047Y-119452380D01*
X271724285Y-119404761D01*
X271771904Y-119357142D01*
X270819523Y-118547619D02*
X270771904Y-118500000D01*
X270676666Y-118452380D01*
X270438571Y-118452380D01*
X270343333Y-118500000D01*
X270295714Y-118547619D01*
X270248095Y-118642857D01*
X270248095Y-118738095D01*
X270295714Y-118880952D01*
X270867142Y-119452380D01*
X270248095Y-119452380D01*
%TO.C,D53*%
X272724285Y-138452380D02*
X272724285Y-137452380D01*
X272486190Y-137452380D01*
X272343333Y-137500000D01*
X272248095Y-137595238D01*
X272200476Y-137690476D01*
X272152857Y-137880952D01*
X272152857Y-138023809D01*
X272200476Y-138214285D01*
X272248095Y-138309523D01*
X272343333Y-138404761D01*
X272486190Y-138452380D01*
X272724285Y-138452380D01*
X271248095Y-137452380D02*
X271724285Y-137452380D01*
X271771904Y-137928571D01*
X271724285Y-137880952D01*
X271629047Y-137833333D01*
X271390952Y-137833333D01*
X271295714Y-137880952D01*
X271248095Y-137928571D01*
X271200476Y-138023809D01*
X271200476Y-138261904D01*
X271248095Y-138357142D01*
X271295714Y-138404761D01*
X271390952Y-138452380D01*
X271629047Y-138452380D01*
X271724285Y-138404761D01*
X271771904Y-138357142D01*
X270867142Y-137452380D02*
X270248095Y-137452380D01*
X270581428Y-137833333D01*
X270438571Y-137833333D01*
X270343333Y-137880952D01*
X270295714Y-137928571D01*
X270248095Y-138023809D01*
X270248095Y-138261904D01*
X270295714Y-138357142D01*
X270343333Y-138404761D01*
X270438571Y-138452380D01*
X270724285Y-138452380D01*
X270819523Y-138404761D01*
X270867142Y-138357142D01*
%TO.C,D54*%
X291774285Y-81452380D02*
X291774285Y-80452380D01*
X291536190Y-80452380D01*
X291393333Y-80500000D01*
X291298095Y-80595238D01*
X291250476Y-80690476D01*
X291202857Y-80880952D01*
X291202857Y-81023809D01*
X291250476Y-81214285D01*
X291298095Y-81309523D01*
X291393333Y-81404761D01*
X291536190Y-81452380D01*
X291774285Y-81452380D01*
X290298095Y-80452380D02*
X290774285Y-80452380D01*
X290821904Y-80928571D01*
X290774285Y-80880952D01*
X290679047Y-80833333D01*
X290440952Y-80833333D01*
X290345714Y-80880952D01*
X290298095Y-80928571D01*
X290250476Y-81023809D01*
X290250476Y-81261904D01*
X290298095Y-81357142D01*
X290345714Y-81404761D01*
X290440952Y-81452380D01*
X290679047Y-81452380D01*
X290774285Y-81404761D01*
X290821904Y-81357142D01*
X289393333Y-80785714D02*
X289393333Y-81452380D01*
X289631428Y-80404761D02*
X289869523Y-81119047D01*
X289250476Y-81119047D01*
%TO.C,D55*%
X291774285Y-138452380D02*
X291774285Y-137452380D01*
X291536190Y-137452380D01*
X291393333Y-137500000D01*
X291298095Y-137595238D01*
X291250476Y-137690476D01*
X291202857Y-137880952D01*
X291202857Y-138023809D01*
X291250476Y-138214285D01*
X291298095Y-138309523D01*
X291393333Y-138404761D01*
X291536190Y-138452380D01*
X291774285Y-138452380D01*
X290298095Y-137452380D02*
X290774285Y-137452380D01*
X290821904Y-137928571D01*
X290774285Y-137880952D01*
X290679047Y-137833333D01*
X290440952Y-137833333D01*
X290345714Y-137880952D01*
X290298095Y-137928571D01*
X290250476Y-138023809D01*
X290250476Y-138261904D01*
X290298095Y-138357142D01*
X290345714Y-138404761D01*
X290440952Y-138452380D01*
X290679047Y-138452380D01*
X290774285Y-138404761D01*
X290821904Y-138357142D01*
X289345714Y-137452380D02*
X289821904Y-137452380D01*
X289869523Y-137928571D01*
X289821904Y-137880952D01*
X289726666Y-137833333D01*
X289488571Y-137833333D01*
X289393333Y-137880952D01*
X289345714Y-137928571D01*
X289298095Y-138023809D01*
X289298095Y-138261904D01*
X289345714Y-138357142D01*
X289393333Y-138404761D01*
X289488571Y-138452380D01*
X289726666Y-138452380D01*
X289821904Y-138404761D01*
X289869523Y-138357142D01*
%TO.C,R1*%
X247929930Y-91101883D02*
X247453740Y-90768550D01*
X247929930Y-90530454D02*
X246929930Y-90530454D01*
X246929930Y-90911407D01*
X246977550Y-91006645D01*
X247025169Y-91054264D01*
X247120407Y-91101883D01*
X247263264Y-91101883D01*
X247358502Y-91054264D01*
X247406121Y-91006645D01*
X247453740Y-90911407D01*
X247453740Y-90530454D01*
X247929930Y-92054264D02*
X247929930Y-91482835D01*
X247929930Y-91768550D02*
X246929930Y-91768550D01*
X247072788Y-91673311D01*
X247168026Y-91578073D01*
X247215645Y-91482835D01*
%TO.C,R2*%
X245770930Y-91099583D02*
X245294740Y-90766250D01*
X245770930Y-90528154D02*
X244770930Y-90528154D01*
X244770930Y-90909107D01*
X244818550Y-91004345D01*
X244866169Y-91051964D01*
X244961407Y-91099583D01*
X245104264Y-91099583D01*
X245199502Y-91051964D01*
X245247121Y-91004345D01*
X245294740Y-90909107D01*
X245294740Y-90528154D01*
X244866169Y-91480535D02*
X244818550Y-91528154D01*
X244770930Y-91623392D01*
X244770930Y-91861488D01*
X244818550Y-91956726D01*
X244866169Y-92004345D01*
X244961407Y-92051964D01*
X245056645Y-92051964D01*
X245199502Y-92004345D01*
X245770930Y-91432916D01*
X245770930Y-92051964D01*
%TO.C,R3*%
X240292880Y-91082833D02*
X239816690Y-90749500D01*
X240292880Y-90511404D02*
X239292880Y-90511404D01*
X239292880Y-90892357D01*
X239340500Y-90987595D01*
X239388119Y-91035214D01*
X239483357Y-91082833D01*
X239626214Y-91082833D01*
X239721452Y-91035214D01*
X239769071Y-90987595D01*
X239816690Y-90892357D01*
X239816690Y-90511404D01*
X239292880Y-91416166D02*
X239292880Y-92035214D01*
X239673833Y-91701880D01*
X239673833Y-91844738D01*
X239721452Y-91939976D01*
X239769071Y-91987595D01*
X239864309Y-92035214D01*
X240102404Y-92035214D01*
X240197642Y-91987595D01*
X240245261Y-91939976D01*
X240292880Y-91844738D01*
X240292880Y-91559023D01*
X240245261Y-91463785D01*
X240197642Y-91416166D01*
%TO.C,R4*%
X238639880Y-113339583D02*
X238163690Y-113006250D01*
X238639880Y-112768154D02*
X237639880Y-112768154D01*
X237639880Y-113149107D01*
X237687500Y-113244345D01*
X237735119Y-113291964D01*
X237830357Y-113339583D01*
X237973214Y-113339583D01*
X238068452Y-113291964D01*
X238116071Y-113244345D01*
X238163690Y-113149107D01*
X238163690Y-112768154D01*
X237973214Y-114196726D02*
X238639880Y-114196726D01*
X237592261Y-113958630D02*
X238306547Y-113720535D01*
X238306547Y-114339583D01*
%TO.C,SW1*%
X237045333Y-76198361D02*
X236902476Y-76245980D01*
X236664380Y-76245980D01*
X236569142Y-76198361D01*
X236521523Y-76150742D01*
X236473904Y-76055504D01*
X236473904Y-75960266D01*
X236521523Y-75865028D01*
X236569142Y-75817409D01*
X236664380Y-75769790D01*
X236854857Y-75722171D01*
X236950095Y-75674552D01*
X236997714Y-75626933D01*
X237045333Y-75531695D01*
X237045333Y-75436457D01*
X236997714Y-75341219D01*
X236950095Y-75293600D01*
X236854857Y-75245980D01*
X236616761Y-75245980D01*
X236473904Y-75293600D01*
X236140571Y-75245980D02*
X235902476Y-76245980D01*
X235712000Y-75531695D01*
X235521523Y-76245980D01*
X235283428Y-75245980D01*
X234378666Y-76245980D02*
X234950095Y-76245980D01*
X234664380Y-76245980D02*
X234664380Y-75245980D01*
X234759619Y-75388838D01*
X234854857Y-75484076D01*
X234950095Y-75531695D01*
%TO.C,U1*%
X251720280Y-105143395D02*
X252529804Y-105143395D01*
X252625042Y-105191014D01*
X252672661Y-105238633D01*
X252720280Y-105333871D01*
X252720280Y-105524347D01*
X252672661Y-105619585D01*
X252625042Y-105667204D01*
X252529804Y-105714823D01*
X251720280Y-105714823D01*
X252720280Y-106714823D02*
X252720280Y-106143395D01*
X252720280Y-106429109D02*
X251720280Y-106429109D01*
X251863138Y-106333871D01*
X251958376Y-106238633D01*
X252005995Y-106143395D01*
%TO.C,Y1*%
X253220052Y-107886547D02*
X253601004Y-107886547D01*
X252801004Y-107619880D02*
X253220052Y-107886547D01*
X252801004Y-108153214D01*
X253601004Y-108838928D02*
X253601004Y-108381785D01*
X253601004Y-108610357D02*
X252801004Y-108610357D01*
X252915290Y-108534166D01*
X252991480Y-108457976D01*
X253029576Y-108381785D01*
%TO.C,J1*%
X242966833Y-89360880D02*
X242966833Y-90075166D01*
X243014452Y-90218023D01*
X243109690Y-90313261D01*
X243252547Y-90360880D01*
X243347785Y-90360880D01*
X241966833Y-90360880D02*
X242538261Y-90360880D01*
X242252547Y-90360880D02*
X242252547Y-89360880D01*
X242347785Y-89503738D01*
X242443023Y-89598976D01*
X242538261Y-89646595D01*
%TD*%
M02*
